<?xml version="1.0" encoding="utf-8"?>
<!-- Generator: Adobe Illustrator 27.0.0, SVG Export Plug-In . SVG Version: 6.00 Build 0)  -->
<svg version="1.1" id="Layer_1" xmlns="http://www.w3.org/2000/svg" xmlns:xlink="http://www.w3.org/1999/xlink" x="0px" y="0px"
	 viewBox="0 0 160 50" style="enable-background:new 0 0 160 50;" xml:space="preserve">
<style type="text/css">
	.st0{fill:#E4C590;}
	.st1{fill:#FFFFFF;}
	.st2{fill:#FFFFFF;filter:url(#Adobe_OpacityMaskFilter);}
	.st3{mask:url(#path-2-outside-1_29_6_00000005972863048269285590000011557709774758691507_);}
	.st4{fill:#FFFFFF;filter:url(#Adobe_OpacityMaskFilter_00000181054898036128395600000018257874407886913422_);}
	.st5{mask:url(#path-2-outside-1_29_6_00000146482469650516630640000005780295634886572713_);fill:none;stroke:#FFFFFF;}
	.st6{fill:#FFFFFF;filter:url(#Adobe_OpacityMaskFilter_00000138555209561457834980000018385106184337233299_);}
	.st7{mask:url(#path-2-outside-1_29_6_00000160902524927810268250000013157553911187162815_);fill:none;stroke:#FFFFFF;}
	.st8{fill:#FFFFFF;filter:url(#Adobe_OpacityMaskFilter_00000168103636988190587740000014023426496245137048_);}
	.st9{mask:url(#path-2-outside-1_29_6_00000045591051808243670790000005882797090532638627_);fill:none;stroke:#FFFFFF;}
	.st10{fill:#FFFFFF;filter:url(#Adobe_OpacityMaskFilter_00000052066463717736579620000018397797631049877675_);}
	.st11{mask:url(#path-2-outside-1_29_6_00000122684885897579785660000011084824517162263215_);fill:none;stroke:#FFFFFF;}
	.st12{fill:#FFFFFF;filter:url(#Adobe_OpacityMaskFilter_00000168105727392602456670000010253116562499109564_);}
	.st13{mask:url(#path-2-outside-1_29_6_00000003084646833134793040000000953511213789004735_);fill:none;stroke:#FFFFFF;}
</style>
<path class="st0" d="M54,44.5v-7.7h2.7c0.6,0,1.1,0.1,1.5,0.3c0.4,0.2,0.7,0.5,0.9,0.8c0.2,0.3,0.3,0.7,0.3,1.2
	c0,0.5-0.1,0.9-0.4,1.3c-0.2,0.4-0.6,0.7-1.2,0.8l1.6,3.3H58l-1.5-3.1h-1.4v3.1H54z M55.2,40.5h1.4c0.5,0,0.9-0.1,1.2-0.4
	c0.2-0.3,0.4-0.6,0.4-1c0-0.4-0.1-0.7-0.4-1c-0.2-0.2-0.6-0.4-1.2-0.4h-1.4V40.5z"/>
<path class="st0" d="M64.7,44.5v-7.7h4.9v0.9h-3.7v2.4h3.4V41h-3.4v2.5h3.7v0.9H64.7z"/>
<path class="st0" d="M77.4,44.6c-0.6,0-1.1-0.1-1.5-0.3c-0.4-0.2-0.8-0.5-1-0.8c-0.2-0.4-0.4-0.8-0.4-1.3h1.2c0,0.4,0.2,0.8,0.4,1
	c0.3,0.3,0.7,0.4,1.2,0.4c0.4,0,0.8-0.1,1-0.3c0.3-0.2,0.4-0.5,0.4-0.8c0-0.3-0.1-0.5-0.2-0.7c-0.1-0.2-0.3-0.3-0.5-0.4
	c-0.2-0.1-0.4-0.2-0.7-0.3c-0.3-0.1-0.6-0.2-0.9-0.3c-0.6-0.2-1-0.5-1.3-0.8c-0.3-0.3-0.4-0.7-0.4-1.2c0-0.4,0.1-0.8,0.3-1.1
	c0.2-0.3,0.5-0.6,0.9-0.7c0.4-0.2,0.8-0.3,1.3-0.3c0.5,0,0.9,0.1,1.3,0.3c0.4,0.2,0.7,0.4,0.9,0.8c0.2,0.3,0.3,0.7,0.3,1.1h-1.2
	c0-0.2-0.1-0.4-0.2-0.6c-0.1-0.2-0.3-0.3-0.5-0.5c-0.2-0.1-0.4-0.2-0.7-0.2c-0.4,0-0.7,0.1-0.9,0.3c-0.2,0.2-0.4,0.5-0.4,0.8
	c0,0.3,0.1,0.5,0.3,0.7c0.2,0.2,0.4,0.3,0.7,0.4c0.3,0.1,0.7,0.2,1.1,0.4c0.4,0.1,0.7,0.3,1,0.5c0.3,0.2,0.5,0.4,0.7,0.7
	c0.2,0.3,0.3,0.6,0.3,1.1c0,0.4-0.1,0.8-0.3,1.1c-0.2,0.3-0.5,0.6-0.9,0.8C78.5,44.5,78,44.6,77.4,44.6z"/>
<path class="st0" d="M87,44.5v-6.8h-2.3v-0.9h5.7v0.9h-2.3v6.8H87z"/>
<path class="st0" d="M94.1,44.5l2.8-7.7h1.3l2.8,7.7h-1.2l-0.7-1.9H96l-0.7,1.9H94.1z M96.4,41.7h2.5l-1.2-3.5L96.4,41.7z"/>
<path class="st0" d="M108.7,44.6c-0.6,0-1-0.1-1.5-0.3c-0.4-0.2-0.8-0.6-1.1-1c-0.3-0.4-0.4-1-0.4-1.7v-4.8h1.2v4.8
	c0,0.7,0.2,1.2,0.5,1.5c0.3,0.3,0.8,0.5,1.3,0.5c0.5,0,1-0.2,1.3-0.5c0.3-0.3,0.5-0.8,0.5-1.5v-4.8h1.2v4.8c0,0.7-0.1,1.3-0.4,1.7
	c-0.3,0.4-0.6,0.8-1.1,1C109.7,44.5,109.2,44.6,108.7,44.6z"/>
<path class="st0" d="M117.1,44.5v-7.7h2.7c0.6,0,1.1,0.1,1.5,0.3c0.4,0.2,0.7,0.5,0.9,0.8c0.2,0.3,0.3,0.7,0.3,1.2
	c0,0.5-0.1,0.9-0.4,1.3c-0.2,0.4-0.6,0.7-1.2,0.8l1.6,3.3h-1.4l-1.5-3.1h-1.4v3.1H117.1z M118.2,40.5h1.4c0.5,0,0.9-0.1,1.2-0.4
	c0.2-0.3,0.4-0.6,0.4-1c0-0.4-0.1-0.7-0.4-1c-0.2-0.2-0.6-0.4-1.2-0.4h-1.4V40.5z"/>
<path class="st0" d="M127.2,44.5l2.8-7.7h1.3l2.8,7.7h-1.2l-0.7-1.9h-3.1l-0.7,1.9H127.2z M129.5,41.7h2.5l-1.2-3.5L129.5,41.7z"/>
<path class="st0" d="M139.2,44.5v-7.7h1.2l3.9,5.8v-5.8h1.2v7.7h-1.2l-3.9-5.8v5.8H139.2z"/>
<path class="st0" d="M152.7,44.5v-6.8h-2.3v-0.9h5.7v0.9h-2.3v6.8H152.7z"/>
<path class="st1" d="M70.6,18.2h5.4v0.4h-0.2c-0.2,0-0.4,0.1-0.5,0.2c-0.2,0.1-0.3,0.3-0.4,0.5c-0.1,0.2-0.2,0.4-0.3,0.6
	c-0.1,0.2-0.1,0.4-0.1,0.6v10.2c-0.5,0.2-1,0.3-1.6,0.5c-0.6,0.1-1.2,0.2-1.8,0.3c-0.6,0.1-1.3,0.2-1.9,0.2
	c-0.7,0.1-1.3,0.1-1.8,0.1c-2.3,0-4.3-0.4-6-1.1c-1.7-0.8-3.1-1.7-4.2-3c-1.1-1.2-2-2.6-2.5-4.2C54.3,22,54,20.5,54,18.9
	s0.3-3.1,0.8-4.7c0.6-1.5,1.4-2.9,2.5-4.1c1.1-1.2,2.6-2.2,4.3-2.9C63.3,6.4,65.3,6,67.7,6c0.9,0,1.7,0.1,2.5,0.2s1.4,0.3,2,0.4
	c0.3,0.1,0.6,0.2,0.8,0.2c0.3,0.1,0.5,0.1,0.6,0.1H74v4h-0.4c-0.2-0.8-0.5-1.4-0.9-1.9c-0.4-0.5-0.9-0.8-1.5-1.1
	c-0.6-0.3-1.2-0.4-1.9-0.5c-0.6-0.1-1.2-0.2-1.8-0.2c-1.9,0-3.5,0.3-4.9,1c-1.4,0.7-2.5,1.5-3.4,2.6s-1.5,2.3-2,3.6
	c-0.4,1.3-0.6,2.6-0.6,4c0,1.5,0.3,2.9,0.8,4.4c0.6,1.4,1.3,2.7,2.4,3.8c1,1.1,2.2,2,3.6,2.7c1.4,0.7,3,1,4.8,1
	c0.5,0,1.1-0.1,1.8-0.2c0.7-0.1,1.4-0.4,2.1-0.8v-8.9c0-0.2,0-0.4-0.1-0.6c-0.1-0.2-0.1-0.4-0.3-0.6c-0.1-0.2-0.2-0.4-0.4-0.5
	c-0.2-0.2-0.3-0.2-0.5-0.2h-0.2V18.2z"/>
<path class="st1" d="M85.6,31.1h0.2v0.4h-5.4v-0.4h0.2c0.2,0,0.3-0.1,0.5-0.2c0.2-0.2,0.3-0.3,0.4-0.5c0.1-0.2,0.2-0.4,0.3-0.6
	c0.1-0.3,0.1-0.5,0.1-0.7V8.7c0-0.2,0-0.4-0.1-0.6c-0.1-0.2-0.1-0.4-0.3-0.6c-0.1-0.2-0.2-0.4-0.4-0.5c-0.2-0.2-0.3-0.2-0.5-0.2
	h-0.2V6.4H87c2.5,0,4.5,0.5,5.9,1.5c1.4,1,2.1,2.4,2.1,4.4c0,1-0.2,1.8-0.5,2.5c-0.3,0.7-0.7,1.3-1.3,1.9c-0.5,0.5-1.2,0.9-1.9,1.3
	c-0.7,0.3-1.5,0.5-2.3,0.7l2.7,4.2c0.7,1,1.3,2,2,3c0.7,1,1.4,2,2,3c0.2,0.3,0.4,0.5,0.6,0.8c0.2,0.3,0.5,0.5,0.7,0.8
	c0.3,0.2,0.5,0.4,0.8,0.6c0.3,0.1,0.6,0.2,0.8,0.2v0.4H97c-1,0-1.8-0.2-2.5-0.7c-0.6-0.5-1.2-1.1-1.6-1.7c-1.1-1.7-2.3-3.4-3.4-5.1
	c-1.1-1.7-2.2-3.4-3.3-5.1c-0.3,0-0.6-0.1-0.9-0.1c-0.3-0.1-0.6-0.1-0.9-0.2V29c0,0.2,0,0.4,0.1,0.7c0.1,0.2,0.1,0.4,0.2,0.6
	c0.1,0.2,0.3,0.4,0.4,0.5C85.2,31,85.4,31.1,85.6,31.1z M84.4,7.7v9.7h0.2c0.2,0,0.5,0.1,0.9,0.1c0.5,0,1,0,1.7,0
	c0.5,0,1.1-0.1,1.7-0.2c0.6-0.2,1.2-0.5,1.7-0.8c0.5-0.4,1-0.9,1.3-1.6c0.4-0.6,0.5-1.4,0.5-2.4s-0.2-1.7-0.6-2.4
	c-0.4-0.6-0.9-1.1-1.5-1.4c-0.6-0.4-1.4-0.6-2.3-0.7c-0.9-0.1-1.9-0.2-3-0.2H84.4z"/>
<path class="st1" d="M102.2,6.4h5.4v0.4h-0.2c-0.2,0-0.3,0.1-0.5,0.2c-0.2,0.1-0.3,0.3-0.4,0.5c-0.1,0.2-0.2,0.4-0.3,0.6
	c-0.1,0.2-0.1,0.4-0.1,0.6V29c0,0.2,0,0.4,0.1,0.7c0.1,0.2,0.1,0.4,0.2,0.6c0.1,0.2,0.3,0.4,0.4,0.5c0.2,0.2,0.3,0.2,0.5,0.2h0.2
	v0.4h-5.4v-0.4h0.2c0.2,0,0.4-0.1,0.5-0.2c0.2-0.2,0.3-0.3,0.4-0.5c0.1-0.2,0.2-0.5,0.3-0.7c0.1-0.3,0.1-0.5,0.1-0.7V8.7
	c0-0.2,0-0.4-0.1-0.6c-0.1-0.2-0.1-0.4-0.3-0.6c-0.1-0.2-0.2-0.4-0.4-0.5c-0.2-0.2-0.3-0.2-0.5-0.2h-0.2V6.4z"/>
<path class="st1" d="M112.5,31.1h0.2c0.2,0,0.4-0.1,0.5-0.2c0.2-0.2,0.3-0.3,0.4-0.5c0.1-0.2,0.2-0.4,0.3-0.6
	c0.1-0.2,0.1-0.4,0.1-0.6V8.7c0-0.2,0-0.4-0.1-0.6c-0.1-0.2-0.1-0.4-0.3-0.6c-0.1-0.2-0.2-0.4-0.4-0.5c-0.2-0.2-0.3-0.2-0.5-0.2
	h-0.2V6.4h5.5v0.4h-0.2c-0.2,0-0.4,0.1-0.5,0.2c-0.2,0.1-0.3,0.3-0.4,0.5c-0.1,0.2-0.2,0.4-0.3,0.6c-0.1,0.2-0.1,0.4-0.1,0.6v21.3
	h8.3c0.5,0,0.9-0.1,1.3-0.3c0.4-0.2,0.6-0.5,0.9-0.8c0.3-0.4,0.4-0.7,0.5-1.1c0.1-0.4,0.2-0.8,0.2-1.1h0.4v4.8h-15.6V31.1z"/>
<path class="st1" d="M131.3,31.1h0.2c0.2,0,0.4-0.1,0.5-0.2c0.2-0.2,0.3-0.3,0.4-0.5c0.1-0.2,0.2-0.4,0.3-0.6
	c0.1-0.2,0.1-0.4,0.1-0.6V8.7c0-0.2,0-0.4-0.1-0.6c-0.1-0.2-0.1-0.4-0.3-0.6c-0.1-0.2-0.2-0.4-0.4-0.5c-0.2-0.2-0.3-0.2-0.5-0.2
	h-0.2V6.4h5.5v0.4h-0.2c-0.2,0-0.4,0.1-0.5,0.2c-0.2,0.1-0.3,0.3-0.4,0.5c-0.1,0.2-0.2,0.4-0.3,0.6c-0.1,0.2-0.1,0.4-0.1,0.6v21.3
	h8.3c0.5,0,0.9-0.1,1.3-0.3c0.4-0.2,0.6-0.5,0.9-0.8c0.3-0.4,0.4-0.7,0.5-1.1c0.1-0.4,0.2-0.8,0.2-1.1h0.4v4.8h-15.6V31.1z"/>
<path class="st1" d="M150.2,6.4h5.4v0.4h-0.2c-0.2,0-0.3,0.1-0.5,0.2c-0.2,0.1-0.3,0.3-0.4,0.5c-0.1,0.2-0.2,0.4-0.3,0.6
	c-0.1,0.2-0.1,0.4-0.1,0.6V29c0,0.2,0,0.4,0.1,0.7c0.1,0.2,0.1,0.4,0.2,0.6c0.1,0.2,0.3,0.4,0.4,0.5c0.2,0.2,0.3,0.2,0.5,0.2h0.2
	v0.4h-5.4v-0.4h0.2c0.2,0,0.4-0.1,0.5-0.2c0.2-0.2,0.3-0.3,0.4-0.5c0.1-0.2,0.2-0.5,0.3-0.7c0.1-0.3,0.1-0.5,0.1-0.7V8.7
	c0-0.2,0-0.4-0.1-0.6c-0.1-0.2-0.1-0.4-0.3-0.6c-0.1-0.2-0.2-0.4-0.4-0.5c-0.2-0.2-0.3-0.2-0.5-0.2h-0.2V6.4z"/>
<defs>
	<filter id="Adobe_OpacityMaskFilter" filterUnits="userSpaceOnUse" x="39.1" y="-13.8" width="49.5" height="50.4">
		<feColorMatrix  type="matrix" values="1 0 0 0 0  0 1 0 0 0  0 0 1 0 0  0 0 0 1 0"/>
	</filter>
</defs>
<mask maskUnits="userSpaceOnUse" x="39.1" y="-13.8" width="49.5" height="50.4" id="path-2-outside-1_29_6_00000005972863048269285590000011557709774758691507_">
	<rect x="53.1" y="5" class="st2" width="97.2" height="26.8"/>
	<path d="M69.6,17.7h5.1v0.4h-0.2c-0.2,0-0.4,0.1-0.5,0.2c-0.1,0.1-0.3,0.3-0.4,0.5c-0.1,0.2-0.2,0.4-0.2,0.6c0,0.2-0.1,0.4-0.1,0.6
		v9.8c-0.4,0.2-0.9,0.3-1.5,0.4c-0.5,0.1-1.1,0.2-1.7,0.3c-0.6,0.1-1.2,0.2-1.8,0.2c-0.6,0-1.2,0.1-1.7,0.1c-2.1,0-4-0.4-5.6-1.1
		c-1.6-0.7-2.9-1.7-3.9-2.8c-1-1.2-1.8-2.5-2.3-4c-0.5-1.5-0.7-3-0.7-4.5s0.2-3,0.7-4.5c0.5-1.5,1.3-2.8,2.3-4
		c1.1-1.2,2.4-2.1,4-2.8C62.7,6.4,64.6,6,66.8,6c0.8,0,1.6,0.1,2.3,0.2c0.7,0.1,1.3,0.3,1.9,0.4c0.3,0.1,0.6,0.1,0.8,0.2
		c0.2,0,0.4,0.1,0.6,0.1h0.3v3.9h-0.4C72.2,10,71.9,9.4,71.5,9c-0.4-0.5-0.9-0.8-1.4-1.1c-0.5-0.2-1.1-0.4-1.7-0.5
		c-0.6-0.1-1.1-0.1-1.7-0.1c-1.8,0-3.3,0.3-4.6,1c-1.3,0.6-2.4,1.5-3.2,2.5c-0.8,1-1.4,2.2-1.8,3.5c-0.4,1.3-0.6,2.5-0.6,3.8
		c0,1.4,0.3,2.8,0.8,4.2c0.5,1.4,1.3,2.6,2.2,3.7c0.9,1.1,2.1,1.9,3.4,2.6c1.3,0.7,2.8,1,4.5,1c0.4,0,1,0,1.7-0.1
		c0.7-0.1,1.3-0.4,2-0.8V20c0-0.2,0-0.4-0.1-0.6c0-0.2-0.1-0.4-0.2-0.6c-0.1-0.2-0.2-0.4-0.4-0.5c-0.1-0.1-0.3-0.2-0.5-0.2h-0.2
		V17.7z"/>
	<path d="M83.5,30h0.2v0.4h-5V30h0.2c0.2,0,0.3-0.1,0.5-0.2c0.1-0.1,0.3-0.3,0.4-0.5c0.1-0.2,0.2-0.4,0.2-0.6c0-0.2,0.1-0.5,0.1-0.7
		V8.6c0-0.2,0-0.4-0.1-0.6s-0.1-0.4-0.2-0.6c-0.1-0.2-0.2-0.4-0.4-0.5c-0.1-0.1-0.3-0.2-0.5-0.2h-0.2V6.4h6.2c2.4,0,4.2,0.5,5.5,1.4
		c1.3,0.9,2,2.3,2,4.2c0,0.9-0.2,1.7-0.5,2.4c-0.3,0.7-0.7,1.3-1.2,1.8c-0.5,0.5-1.1,0.9-1.8,1.2c-0.7,0.3-1.4,0.5-2.1,0.7l2.6,4
		c0.6,1,1.2,1.9,1.9,2.9c0.6,0.9,1.3,1.9,1.9,2.9c0.2,0.2,0.3,0.5,0.5,0.8c0.2,0.3,0.4,0.5,0.6,0.7c0.2,0.2,0.5,0.4,0.7,0.5
		c0.3,0.1,0.5,0.2,0.8,0.2v0.4h-1.5c-0.9,0-1.7-0.2-2.3-0.7c-0.6-0.5-1.1-1-1.5-1.7c-1.1-1.6-2.1-3.2-3.2-4.9
		c-1-1.7-2.1-3.3-3.1-4.9c-0.3,0-0.5,0-0.9-0.1c-0.3,0-0.6-0.1-0.8-0.1v10c0,0.2,0,0.4,0.1,0.7c0,0.2,0.1,0.4,0.2,0.6
		c0.1,0.2,0.2,0.4,0.4,0.5C83.2,30,83.3,30,83.5,30z M82.4,7.6v9.3h0.2c0.2,0,0.5,0,0.9,0.1c0.4,0,0.9,0,1.6,0c0.5,0,1-0.1,1.6-0.2
		c0.6-0.2,1.1-0.4,1.6-0.8c0.5-0.4,0.9-0.9,1.2-1.5c0.3-0.6,0.5-1.4,0.5-2.3s-0.2-1.7-0.5-2.3c-0.3-0.6-0.8-1-1.4-1.4
		c-0.6-0.3-1.3-0.6-2.2-0.7c-0.9-0.1-1.8-0.2-2.8-0.2H82.4z"/>
	<path d="M99.1,6.4h5.1v0.4H104c-0.2,0-0.3,0.1-0.5,0.2c-0.1,0.1-0.3,0.3-0.4,0.5c-0.1,0.2-0.2,0.4-0.2,0.6c0,0.2-0.1,0.4-0.1,0.6
		V28c0,0.2,0,0.4,0.1,0.7c0,0.2,0.1,0.4,0.2,0.6c0.1,0.2,0.2,0.4,0.4,0.5c0.1,0.1,0.3,0.2,0.5,0.2h0.2v0.4h-5.1V30h0.2
		c0.2,0,0.4-0.1,0.5-0.2c0.1-0.1,0.3-0.3,0.4-0.5c0.1-0.2,0.2-0.4,0.2-0.7c0-0.2,0.1-0.5,0.1-0.7V8.6c0-0.2,0-0.4-0.1-0.6
		c0-0.2-0.1-0.4-0.2-0.6c-0.1-0.2-0.2-0.4-0.4-0.5c-0.1-0.1-0.3-0.2-0.5-0.2h-0.2V6.4z"/>
	<path d="M108.6,30h0.2c0.2,0,0.4-0.1,0.5-0.2c0.1-0.1,0.3-0.3,0.4-0.5c0.1-0.2,0.2-0.4,0.2-0.6c0.1-0.2,0.1-0.4,0.1-0.6V8.6
		c0-0.2,0-0.4-0.1-0.6c0-0.2-0.1-0.4-0.2-0.6c-0.1-0.2-0.2-0.4-0.4-0.5c-0.1-0.1-0.3-0.2-0.5-0.2h-0.2V6.4h5.1v0.4h-0.2
		c-0.2,0-0.4,0.1-0.5,0.2c-0.1,0.1-0.3,0.3-0.4,0.5c-0.1,0.2-0.2,0.4-0.2,0.6c0,0.2-0.1,0.4-0.1,0.6v20.4h7.8c0.5,0,0.8-0.1,1.2-0.3
		c0.3-0.2,0.6-0.5,0.8-0.8c0.2-0.3,0.4-0.7,0.5-1.1c0.1-0.4,0.2-0.7,0.2-1.1h0.4v4.6h-14.6V30z"/>
	<path d="M126.2,30h0.2c0.2,0,0.4-0.1,0.5-0.2c0.1-0.1,0.3-0.3,0.4-0.5c0.1-0.2,0.2-0.4,0.2-0.6c0.1-0.2,0.1-0.4,0.1-0.6V8.6
		c0-0.2,0-0.4-0.1-0.6c0-0.2-0.1-0.4-0.2-0.6c-0.1-0.2-0.2-0.4-0.4-0.5c-0.1-0.1-0.3-0.2-0.5-0.2h-0.2V6.4h5.1v0.4h-0.2
		c-0.2,0-0.4,0.1-0.5,0.2c-0.1,0.1-0.3,0.3-0.4,0.5c-0.1,0.2-0.2,0.4-0.2,0.6c0,0.2-0.1,0.4-0.1,0.6v20.4h7.8c0.5,0,0.8-0.1,1.2-0.3
		c0.3-0.2,0.6-0.5,0.8-0.8c0.2-0.3,0.4-0.7,0.5-1.1c0.1-0.4,0.2-0.7,0.2-1.1h0.4v4.6h-14.6V30z"/>
	<path d="M143.9,6.4h5.1v0.4h-0.2c-0.2,0-0.3,0.1-0.5,0.2c-0.1,0.1-0.3,0.3-0.4,0.5c-0.1,0.2-0.2,0.4-0.2,0.6c0,0.2-0.1,0.4-0.1,0.6
		V28c0,0.2,0,0.4,0.1,0.7c0,0.2,0.1,0.4,0.2,0.6c0.1,0.2,0.2,0.4,0.4,0.5c0.1,0.1,0.3,0.2,0.5,0.2h0.2v0.4h-5.1V30h0.2
		c0.2,0,0.4-0.1,0.5-0.2c0.1-0.1,0.3-0.3,0.4-0.5c0.1-0.2,0.2-0.4,0.2-0.7c0-0.2,0.1-0.5,0.1-0.7V8.6c0-0.2,0-0.4-0.1-0.6
		c0-0.2-0.1-0.4-0.2-0.6c-0.1-0.2-0.2-0.4-0.4-0.5c-0.1-0.1-0.3-0.2-0.5-0.2h-0.2V6.4z"/>
</mask>
<g class="st3">
	<path class="st1" d="M65.1,13.3c3.8,0.2,7.7,1.7,10,4.4c0,0.2,0,0.6,0,0.9c0,0-0.5,0-0.5,0c0,0-0.2,0-0.2,0
		c-0.2,0.1-0.3,0.2-0.4,0.4c0,0-0.2,0.5-0.2,0.5s0,0,0,0c0,0.3-0.1,0.9-0.1,1.2c0,0.8,0,3,0,3.9c0,0,0,5.2,0,5.2v0.4
		c-0.6,0.2-1.3,0.4-1.9,0.6C47.4,36.4,47.6,0.6,71.1,6.1c0,0,0.8,0.2,0.8,0.2l-0.1,0c0.3,0,0.6,0.1,0.8,0.1c0,0,0.5,0,0.5,0
		s0,0.5,0,0.5c0,0.3,0,4.2,0,4.4c0,0-0.5,0-0.5,0h-0.3c0,0,0,0,0,0c0,0-0.5-0.4-0.5-0.4c-0.4,0.1,0.6-0.1,0.4-0.1l-0.2,0
		c-5.7,0.9-11.8,2.3-16,6.8c-0.5,0.6-0.6,1.2-0.9,1.9c-0.1,0.4-0.3,0.9-0.3,1.3c0,0.4,0.1,0.8,0.2,1.1c0.2,0.8,0.7,1.4,0.7,1.3
		c0.6,0.7,1.3,1.3,2.1,1.9c2.5,2,6.1,3.5,8.7,3.3c1.3-0.2,3.1-0.8,4.6-1.8c0.1-0.1,0-0.1,0.1-0.1c2.2-1.7,4.8-5.3,2.6-7.9
		c-0.7-0.9-1.6-1.7-2.8-1.7c-1.5,0-3.5,1.2-3.9,2.9c-0.1,0.2,0,0.4-0.2,0.5c-0.1,0.2-0.3,0.3-0.3,0.5c-0.6,2,0.7,3.9,1.9,5.4
		c0.4,0.9,1.4,1.4,2.3,1.8c0,0-0.2,0.4-0.2,0.4c-18.9,0-5.3,0-9.5,0c0,0,0-0.1,0.1-0.1c1.1-1.3,2.9-3.5,4.1-4.8c0,0,2.1-2.5,2.1-2.5
		c0.5-0.5,0.8-1.2,1.5-1.3c0.2,0,0.3-0.1,0.5-0.2l-0.1-0.1c0.1-0.1,0.3-0.2,0.4-0.3l-0.1-0.1c0.1,0,0.2-0.1,0.3-0.2
		c0.1-0.2,0-0.2-0.1-0.3c0,0-0.5-0.5-0.5-0.5C66.8,17.9,65.3,15.6,65.1,13.3L65.1,13.3z M74,22.2c-0.2-2.1-1.7-4.1-3.9-4.1
		c0,0-0.5-0.5-0.5-0.5c0.3-0.4,1-0.3,1.5-0.1c0,0-0.1-0.1-0.1-0.1c0.4,0.1,0.8,0.4,1.1,0.6c0,0-0.1-0.1-0.1-0.1
		c1.2,0.8,1.6,2.3,2.6,3.2c1.7,2,4,4.7,5.7,6.8c0,0,0.3,0.3,0.3,0.3s0.1,0.2,0.1,0.2s0.1,0.1,0.1,0.1s0,0,0,0s0,0,0,0s0,0,0,0
		s0,0,0,0s0,0,0,0c-4.2,0,9.5,0-9.5,0l-0.2,0L71.2,29c-0.2,1.3-0.8,2.4-1.8,3.4c-2.4,2.9-6.2,4.4-10,4.2
		c-7.5-0.2-14.3-5.2-17.6-11.8C35.6,12.5,40.5-2.9,52.3-9.7c10.5-6.2,24.5-5.5,33.4,2.8c1,1,2.1,1.9,2.5,3.3
		c0.6,1.5,0.3,3.1-0.1,4.6c-0.1,0.3-0.1,0.5-0.3,0.8c-3.5,5.3-9.4,7.4-15.3,8.9c0,0-0.2,0.1-0.2,0.1c-0.2,0,0.8-0.2,0.4-0.1
		c0,0-0.5-0.4-0.5-0.4c0,0,0,0,0,0c0,0,0.3,0,0.3,0l-0.5,0.5V6.9c0,0,0.5,0.5,0.5,0.5c-0.3,0-0.7,0-1-0.1c0,0-0.1,0-0.1,0
		s-0.7-0.2-0.7-0.2c-5.7-1.7-12.8,0.2-15.3,6c-2.6,5.6-0.6,13.3,5.3,16c2.8,1.4,6.1,1.4,9.2,0.9c0.9-0.2,2.2-0.4,3-0.7
		c0,0-0.3,0.5-0.3,0.5c0-1.7,0-6.1,0-7.8c0-0.8,0-1.9,0.1-2.7c0,0,0,0,0,0c0,0,0.3-0.6,0.3-0.6c0.3-0.6,0.8-1.1,1.5-1
		c0,0-0.5,0.5-0.5,0.5c0-0.1,0-0.2,0-0.4c0,0,0.5,0.5,0.5,0.5C73.6,19.5,72.7,21.3,74,22.2L74,22.2z"/>
</g>
<defs>
	
		<filter id="Adobe_OpacityMaskFilter_00000178892490791413320340000000295963738609675426_" filterUnits="userSpaceOnUse" x="79.9" y="5.9" width="19.2" height="26.1">
		<feColorMatrix  type="matrix" values="1 0 0 0 0  0 1 0 0 0  0 0 1 0 0  0 0 0 1 0"/>
	</filter>
</defs>
<mask maskUnits="userSpaceOnUse" x="79.9" y="5.9" width="19.2" height="26.1" id="path-2-outside-1_29_6_00000146482469650516630640000005780295634886572713_">
	
		<rect x="53" y="5" style="fill:#FFFFFF;filter:url(#Adobe_OpacityMaskFilter_00000178892490791413320340000000295963738609675426_);" width="104" height="28"/>
	<path d="M70.6,18.2h5.4v0.4h-0.2c-0.2,0-0.4,0.1-0.5,0.2c-0.2,0.1-0.3,0.3-0.4,0.5c-0.1,0.2-0.2,0.4-0.3,0.6
		c-0.1,0.2-0.1,0.4-0.1,0.6v10.2c-0.5,0.2-1,0.3-1.6,0.5c-0.6,0.1-1.2,0.2-1.8,0.3c-0.6,0.1-1.3,0.2-1.9,0.2
		c-0.7,0.1-1.3,0.1-1.8,0.1c-2.3,0-4.3-0.4-6-1.1c-1.7-0.8-3.1-1.7-4.2-3c-1.1-1.2-2-2.6-2.5-4.2C54.3,22,54,20.5,54,18.9
		s0.3-3.1,0.8-4.7c0.6-1.5,1.4-2.9,2.5-4.1c1.1-1.2,2.6-2.2,4.3-2.9C63.3,6.4,65.3,6,67.7,6c0.9,0,1.7,0.1,2.5,0.2s1.4,0.3,2,0.4
		c0.3,0.1,0.6,0.2,0.8,0.2c0.3,0.1,0.5,0.1,0.6,0.1H74v4h-0.4c-0.2-0.8-0.5-1.4-0.9-1.9c-0.4-0.5-0.9-0.8-1.5-1.1
		c-0.6-0.3-1.2-0.4-1.9-0.5c-0.6-0.1-1.2-0.2-1.8-0.2c-1.9,0-3.5,0.3-4.9,1c-1.4,0.7-2.5,1.5-3.4,2.6s-1.5,2.3-2,3.6
		c-0.4,1.3-0.6,2.6-0.6,4c0,1.5,0.3,2.9,0.8,4.4c0.6,1.4,1.3,2.7,2.4,3.8c1,1.1,2.2,2,3.6,2.7c1.4,0.7,3,1,4.8,1
		c0.5,0,1.1-0.1,1.8-0.2c0.7-0.1,1.4-0.4,2.1-0.8v-8.9c0-0.2,0-0.4-0.1-0.6c-0.1-0.2-0.1-0.4-0.3-0.6c-0.1-0.2-0.2-0.4-0.4-0.5
		c-0.2-0.2-0.3-0.2-0.5-0.2h-0.2V18.2z"/>
	<path d="M85.6,31.1h0.2v0.4h-5.4v-0.4h0.2c0.2,0,0.3-0.1,0.5-0.2c0.2-0.2,0.3-0.3,0.4-0.5c0.1-0.2,0.2-0.4,0.3-0.6
		c0.1-0.3,0.1-0.5,0.1-0.7V8.7c0-0.2,0-0.4-0.1-0.6c-0.1-0.2-0.1-0.4-0.3-0.6c-0.1-0.2-0.2-0.4-0.4-0.5c-0.2-0.2-0.3-0.2-0.5-0.2
		h-0.2V6.4H87c2.5,0,4.5,0.5,5.9,1.5c1.4,1,2.1,2.4,2.1,4.4c0,1-0.2,1.8-0.5,2.5c-0.3,0.7-0.7,1.3-1.3,1.9c-0.5,0.5-1.2,0.9-1.9,1.3
		c-0.7,0.3-1.5,0.5-2.3,0.7l2.7,4.2c0.7,1,1.3,2,2,3c0.7,1,1.4,2,2,3c0.2,0.3,0.4,0.5,0.6,0.8c0.2,0.3,0.5,0.5,0.7,0.8
		c0.3,0.2,0.5,0.4,0.8,0.6c0.3,0.1,0.6,0.2,0.8,0.2v0.4H97c-1,0-1.8-0.2-2.5-0.7c-0.6-0.5-1.2-1.1-1.6-1.7c-1.1-1.7-2.3-3.4-3.4-5.1
		c-1.1-1.7-2.2-3.4-3.3-5.1c-0.3,0-0.6-0.1-0.9-0.1c-0.3-0.1-0.6-0.1-0.9-0.2V29c0,0.2,0,0.4,0.1,0.7c0.1,0.2,0.1,0.4,0.2,0.6
		c0.1,0.2,0.3,0.4,0.4,0.5C85.2,31,85.4,31.1,85.6,31.1z M84.4,7.7v9.7h0.2c0.2,0,0.5,0.1,0.9,0.1c0.5,0,1,0,1.7,0
		c0.5,0,1.1-0.1,1.7-0.2c0.6-0.2,1.2-0.5,1.7-0.8c0.5-0.4,1-0.9,1.3-1.6c0.4-0.6,0.5-1.4,0.5-2.4s-0.2-1.7-0.6-2.4
		c-0.4-0.6-0.9-1.1-1.5-1.4c-0.6-0.4-1.4-0.6-2.3-0.7c-0.9-0.1-1.9-0.2-3-0.2H84.4z"/>
	<path d="M102.2,6.4h5.4v0.4h-0.2c-0.2,0-0.3,0.1-0.5,0.2c-0.2,0.1-0.3,0.3-0.4,0.5c-0.1,0.2-0.2,0.4-0.3,0.6
		c-0.1,0.2-0.1,0.4-0.1,0.6V29c0,0.2,0,0.4,0.1,0.7c0.1,0.2,0.1,0.4,0.2,0.6c0.1,0.2,0.3,0.4,0.4,0.5c0.2,0.2,0.3,0.2,0.5,0.2h0.2
		v0.4h-5.4v-0.4h0.2c0.2,0,0.4-0.1,0.5-0.2c0.2-0.2,0.3-0.3,0.4-0.5c0.1-0.2,0.2-0.5,0.3-0.7c0.1-0.3,0.1-0.5,0.1-0.7V8.7
		c0-0.2,0-0.4-0.1-0.6c-0.1-0.2-0.1-0.4-0.3-0.6c-0.1-0.2-0.2-0.4-0.4-0.5c-0.2-0.2-0.3-0.2-0.5-0.2h-0.2V6.4z"/>
	<path d="M112.5,31.1h0.2c0.2,0,0.4-0.1,0.5-0.2c0.2-0.2,0.3-0.3,0.4-0.5c0.1-0.2,0.2-0.4,0.3-0.6c0.1-0.2,0.1-0.4,0.1-0.6V8.7
		c0-0.2,0-0.4-0.1-0.6c-0.1-0.2-0.1-0.4-0.3-0.6c-0.1-0.2-0.2-0.4-0.4-0.5c-0.2-0.2-0.3-0.2-0.5-0.2h-0.2V6.4h5.5v0.4h-0.2
		c-0.2,0-0.4,0.1-0.5,0.2c-0.2,0.1-0.3,0.3-0.4,0.5c-0.1,0.2-0.2,0.4-0.3,0.6c-0.1,0.2-0.1,0.4-0.1,0.6v21.3h8.3
		c0.5,0,0.9-0.1,1.3-0.3c0.4-0.2,0.6-0.5,0.9-0.8c0.3-0.4,0.4-0.7,0.5-1.1c0.1-0.4,0.2-0.8,0.2-1.1h0.4v4.8h-15.6V31.1z"/>
	<path d="M131.3,31.1h0.2c0.2,0,0.4-0.1,0.5-0.2c0.2-0.2,0.3-0.3,0.4-0.5c0.1-0.2,0.2-0.4,0.3-0.6c0.1-0.2,0.1-0.4,0.1-0.6V8.7
		c0-0.2,0-0.4-0.1-0.6c-0.1-0.2-0.1-0.4-0.3-0.6c-0.1-0.2-0.2-0.4-0.4-0.5c-0.2-0.2-0.3-0.2-0.5-0.2h-0.2V6.4h5.5v0.4h-0.2
		c-0.2,0-0.4,0.1-0.5,0.2c-0.2,0.1-0.3,0.3-0.4,0.5c-0.1,0.2-0.2,0.4-0.3,0.6c-0.1,0.2-0.1,0.4-0.1,0.6v21.3h8.3
		c0.5,0,0.9-0.1,1.3-0.3c0.4-0.2,0.6-0.5,0.9-0.8c0.3-0.4,0.4-0.7,0.5-1.1c0.1-0.4,0.2-0.8,0.2-1.1h0.4v4.8h-15.6V31.1z"/>
	<path d="M150.2,6.4h5.4v0.4h-0.2c-0.2,0-0.3,0.1-0.5,0.2c-0.2,0.1-0.3,0.3-0.4,0.5c-0.1,0.2-0.2,0.4-0.3,0.6
		c-0.1,0.2-0.1,0.4-0.1,0.6V29c0,0.2,0,0.4,0.1,0.7c0.1,0.2,0.1,0.4,0.2,0.6c0.1,0.2,0.3,0.4,0.4,0.5c0.2,0.2,0.3,0.2,0.5,0.2h0.2
		v0.4h-5.4v-0.4h0.2c0.2,0,0.4-0.1,0.5-0.2c0.2-0.2,0.3-0.3,0.4-0.5c0.1-0.2,0.2-0.5,0.3-0.7c0.1-0.3,0.1-0.5,0.1-0.7V8.7
		c0-0.2,0-0.4-0.1-0.6c-0.1-0.2-0.1-0.4-0.3-0.6c-0.1-0.2-0.2-0.4-0.4-0.5c-0.2-0.2-0.3-0.2-0.5-0.2h-0.2V6.4z"/>
</mask>
<path class="st5" d="M85.6,31.1h0.2v0.4h-5.4v-0.4h0.2c0.2,0,0.3-0.1,0.5-0.2c0.2-0.2,0.3-0.3,0.4-0.5c0.1-0.2,0.2-0.4,0.3-0.6
	c0.1-0.3,0.1-0.5,0.1-0.7V8.7c0-0.2,0-0.4-0.1-0.6c-0.1-0.2-0.1-0.4-0.3-0.6c-0.1-0.2-0.2-0.4-0.4-0.5c-0.2-0.2-0.3-0.2-0.5-0.2
	h-0.2V6.4H87c2.5,0,4.5,0.5,5.9,1.5c1.4,1,2.1,2.4,2.1,4.4c0,1-0.2,1.8-0.5,2.5c-0.3,0.7-0.7,1.3-1.3,1.9c-0.5,0.5-1.2,0.9-1.9,1.3
	c-0.7,0.3-1.5,0.5-2.3,0.7l2.7,4.2c0.7,1,1.3,2,2,3c0.7,1,1.4,2,2,3c0.2,0.3,0.4,0.5,0.6,0.8c0.2,0.3,0.5,0.5,0.7,0.8
	c0.3,0.2,0.5,0.4,0.8,0.6c0.3,0.1,0.6,0.2,0.8,0.2v0.4H97c-1,0-1.8-0.2-2.5-0.7c-0.6-0.5-1.2-1.1-1.6-1.7c-1.1-1.7-2.3-3.4-3.4-5.1
	c-1.1-1.7-2.2-3.4-3.3-5.1c-0.3,0-0.6-0.1-0.9-0.1c-0.3-0.1-0.6-0.1-0.9-0.2V29c0,0.2,0,0.4,0.1,0.7c0.1,0.2,0.1,0.4,0.2,0.6
	c0.1,0.2,0.3,0.4,0.4,0.5C85.2,31,85.4,31.1,85.6,31.1z M84.4,7.7v9.7h0.2c0.2,0,0.5,0.1,0.9,0.1c0.5,0,1,0,1.7,0
	c0.5,0,1.1-0.1,1.7-0.2c0.6-0.2,1.2-0.5,1.7-0.8c0.5-0.4,1-0.9,1.3-1.6c0.4-0.6,0.5-1.4,0.5-2.4s-0.2-1.7-0.6-2.4
	c-0.4-0.6-0.9-1.1-1.5-1.4c-0.6-0.4-1.4-0.6-2.3-0.7c-0.9-0.1-1.9-0.2-3-0.2H84.4z"/>
<defs>
	
		<filter id="Adobe_OpacityMaskFilter_00000139260637772413149110000004853103662946532251_" filterUnits="userSpaceOnUse" x="101.7" y="5.9" width="6.4" height="26.1">
		<feColorMatrix  type="matrix" values="1 0 0 0 0  0 1 0 0 0  0 0 1 0 0  0 0 0 1 0"/>
	</filter>
</defs>
<mask maskUnits="userSpaceOnUse" x="101.7" y="5.9" width="6.4" height="26.1" id="path-2-outside-1_29_6_00000160902524927810268250000013157553911187162815_">
	
		<rect x="53" y="5" style="fill:#FFFFFF;filter:url(#Adobe_OpacityMaskFilter_00000139260637772413149110000004853103662946532251_);" width="104" height="28"/>
	<path d="M70.6,18.2h5.4v0.4h-0.2c-0.2,0-0.4,0.1-0.5,0.2c-0.2,0.1-0.3,0.3-0.4,0.5c-0.1,0.2-0.2,0.4-0.3,0.6
		c-0.1,0.2-0.1,0.4-0.1,0.6v10.2c-0.5,0.2-1,0.3-1.6,0.5c-0.6,0.1-1.2,0.2-1.8,0.3c-0.6,0.1-1.3,0.2-1.9,0.2
		c-0.7,0.1-1.3,0.1-1.8,0.1c-2.3,0-4.3-0.4-6-1.1c-1.7-0.8-3.1-1.7-4.2-3c-1.1-1.2-2-2.6-2.5-4.2C54.3,22,54,20.5,54,18.9
		s0.3-3.1,0.8-4.7c0.6-1.5,1.4-2.9,2.5-4.1c1.1-1.2,2.6-2.2,4.3-2.9C63.3,6.4,65.3,6,67.7,6c0.9,0,1.7,0.1,2.5,0.2s1.4,0.3,2,0.4
		c0.3,0.1,0.6,0.2,0.8,0.2c0.3,0.1,0.5,0.1,0.6,0.1H74v4h-0.4c-0.2-0.8-0.5-1.4-0.9-1.9c-0.4-0.5-0.9-0.8-1.5-1.1
		c-0.6-0.3-1.2-0.4-1.9-0.5c-0.6-0.1-1.2-0.2-1.8-0.2c-1.9,0-3.5,0.3-4.9,1c-1.4,0.7-2.5,1.5-3.4,2.6s-1.5,2.3-2,3.6
		c-0.4,1.3-0.6,2.6-0.6,4c0,1.5,0.3,2.9,0.8,4.4c0.6,1.4,1.3,2.7,2.4,3.8c1,1.1,2.2,2,3.6,2.7c1.4,0.7,3,1,4.8,1
		c0.5,0,1.1-0.1,1.8-0.2c0.7-0.1,1.4-0.4,2.1-0.8v-8.9c0-0.2,0-0.4-0.1-0.6c-0.1-0.2-0.1-0.4-0.3-0.6c-0.1-0.2-0.2-0.4-0.4-0.5
		c-0.2-0.2-0.3-0.2-0.5-0.2h-0.2V18.2z"/>
	<path d="M85.6,31.1h0.2v0.4h-5.4v-0.4h0.2c0.2,0,0.3-0.1,0.5-0.2c0.2-0.2,0.3-0.3,0.4-0.5c0.1-0.2,0.2-0.4,0.3-0.6
		c0.1-0.3,0.1-0.5,0.1-0.7V8.7c0-0.2,0-0.4-0.1-0.6c-0.1-0.2-0.1-0.4-0.3-0.6c-0.1-0.2-0.2-0.4-0.4-0.5c-0.2-0.2-0.3-0.2-0.5-0.2
		h-0.2V6.4H87c2.5,0,4.5,0.5,5.9,1.5c1.4,1,2.1,2.4,2.1,4.4c0,1-0.2,1.8-0.5,2.5c-0.3,0.7-0.7,1.3-1.3,1.9c-0.5,0.5-1.2,0.9-1.9,1.3
		c-0.7,0.3-1.5,0.5-2.3,0.7l2.7,4.2c0.7,1,1.3,2,2,3c0.7,1,1.4,2,2,3c0.2,0.3,0.4,0.5,0.6,0.8c0.2,0.3,0.5,0.5,0.7,0.8
		c0.3,0.2,0.5,0.4,0.8,0.6c0.3,0.1,0.6,0.2,0.8,0.2v0.4H97c-1,0-1.8-0.2-2.5-0.7c-0.6-0.5-1.2-1.1-1.6-1.7c-1.1-1.7-2.3-3.4-3.4-5.1
		c-1.1-1.7-2.2-3.4-3.3-5.1c-0.3,0-0.6-0.1-0.9-0.1c-0.3-0.1-0.6-0.1-0.9-0.2V29c0,0.2,0,0.4,0.1,0.7c0.1,0.2,0.1,0.4,0.2,0.6
		c0.1,0.2,0.3,0.4,0.4,0.5C85.2,31,85.4,31.1,85.6,31.1z M84.4,7.7v9.7h0.2c0.2,0,0.5,0.1,0.9,0.1c0.5,0,1,0,1.7,0
		c0.5,0,1.1-0.1,1.7-0.2c0.6-0.2,1.2-0.5,1.7-0.8c0.5-0.4,1-0.9,1.3-1.6c0.4-0.6,0.5-1.4,0.5-2.4s-0.2-1.7-0.6-2.4
		c-0.4-0.6-0.9-1.1-1.5-1.4c-0.6-0.4-1.4-0.6-2.3-0.7c-0.9-0.1-1.9-0.2-3-0.2H84.4z"/>
	<path d="M102.2,6.4h5.4v0.4h-0.2c-0.2,0-0.3,0.1-0.5,0.2c-0.2,0.1-0.3,0.3-0.4,0.5c-0.1,0.2-0.2,0.4-0.3,0.6
		c-0.1,0.2-0.1,0.4-0.1,0.6V29c0,0.2,0,0.4,0.1,0.7c0.1,0.2,0.1,0.4,0.2,0.6c0.1,0.2,0.3,0.4,0.4,0.5c0.2,0.2,0.3,0.2,0.5,0.2h0.2
		v0.4h-5.4v-0.4h0.2c0.2,0,0.4-0.1,0.5-0.2c0.2-0.2,0.3-0.3,0.4-0.5c0.1-0.2,0.2-0.5,0.3-0.7c0.1-0.3,0.1-0.5,0.1-0.7V8.7
		c0-0.2,0-0.4-0.1-0.6c-0.1-0.2-0.1-0.4-0.3-0.6c-0.1-0.2-0.2-0.4-0.4-0.5c-0.2-0.2-0.3-0.2-0.5-0.2h-0.2V6.4z"/>
	<path d="M112.5,31.1h0.2c0.2,0,0.4-0.1,0.5-0.2c0.2-0.2,0.3-0.3,0.4-0.5c0.1-0.2,0.2-0.4,0.3-0.6c0.1-0.2,0.1-0.4,0.1-0.6V8.7
		c0-0.2,0-0.4-0.1-0.6c-0.1-0.2-0.1-0.4-0.3-0.6c-0.1-0.2-0.2-0.4-0.4-0.5c-0.2-0.2-0.3-0.2-0.5-0.2h-0.2V6.4h5.5v0.4h-0.2
		c-0.2,0-0.4,0.1-0.5,0.2c-0.2,0.1-0.3,0.3-0.4,0.5c-0.1,0.2-0.2,0.4-0.3,0.6c-0.1,0.2-0.1,0.4-0.1,0.6v21.3h8.3
		c0.5,0,0.9-0.1,1.3-0.3c0.4-0.2,0.6-0.5,0.9-0.8c0.3-0.4,0.4-0.7,0.5-1.1c0.1-0.4,0.2-0.8,0.2-1.1h0.4v4.8h-15.6V31.1z"/>
	<path d="M131.3,31.1h0.2c0.2,0,0.4-0.1,0.5-0.2c0.2-0.2,0.3-0.3,0.4-0.5c0.1-0.2,0.2-0.4,0.3-0.6c0.1-0.2,0.1-0.4,0.1-0.6V8.7
		c0-0.2,0-0.4-0.1-0.6c-0.1-0.2-0.1-0.4-0.3-0.6c-0.1-0.2-0.2-0.4-0.4-0.5c-0.2-0.2-0.3-0.2-0.5-0.2h-0.2V6.4h5.5v0.4h-0.2
		c-0.2,0-0.4,0.1-0.5,0.2c-0.2,0.1-0.3,0.3-0.4,0.5c-0.1,0.2-0.2,0.4-0.3,0.6c-0.1,0.2-0.1,0.4-0.1,0.6v21.3h8.3
		c0.5,0,0.9-0.1,1.3-0.3c0.4-0.2,0.6-0.5,0.9-0.8c0.3-0.4,0.4-0.7,0.5-1.1c0.1-0.4,0.2-0.8,0.2-1.1h0.4v4.8h-15.6V31.1z"/>
	<path d="M150.2,6.4h5.4v0.4h-0.2c-0.2,0-0.3,0.1-0.5,0.2c-0.2,0.1-0.3,0.3-0.4,0.5c-0.1,0.2-0.2,0.4-0.3,0.6
		c-0.1,0.2-0.1,0.4-0.1,0.6V29c0,0.2,0,0.4,0.1,0.7c0.1,0.2,0.1,0.4,0.2,0.6c0.1,0.2,0.3,0.4,0.4,0.5c0.2,0.2,0.3,0.2,0.5,0.2h0.2
		v0.4h-5.4v-0.4h0.2c0.2,0,0.4-0.1,0.5-0.2c0.2-0.2,0.3-0.3,0.4-0.5c0.1-0.2,0.2-0.5,0.3-0.7c0.1-0.3,0.1-0.5,0.1-0.7V8.7
		c0-0.2,0-0.4-0.1-0.6c-0.1-0.2-0.1-0.4-0.3-0.6c-0.1-0.2-0.2-0.4-0.4-0.5c-0.2-0.2-0.3-0.2-0.5-0.2h-0.2V6.4z"/>
</mask>
<path class="st7" d="M102.2,6.4h5.4v0.4h-0.2c-0.2,0-0.3,0.1-0.5,0.2c-0.2,0.1-0.3,0.3-0.4,0.5c-0.1,0.2-0.2,0.4-0.3,0.6
	c-0.1,0.2-0.1,0.4-0.1,0.6V29c0,0.2,0,0.4,0.1,0.7c0.1,0.2,0.1,0.4,0.2,0.6c0.1,0.2,0.3,0.4,0.4,0.5c0.2,0.2,0.3,0.2,0.5,0.2h0.2
	v0.4h-5.4v-0.4h0.2c0.2,0,0.4-0.1,0.5-0.2c0.2-0.2,0.3-0.3,0.4-0.5c0.1-0.2,0.2-0.5,0.3-0.7c0.1-0.3,0.1-0.5,0.1-0.7V8.7
	c0-0.2,0-0.4-0.1-0.6c-0.1-0.2-0.1-0.4-0.3-0.6c-0.1-0.2-0.2-0.4-0.4-0.5c-0.2-0.2-0.3-0.2-0.5-0.2h-0.2V6.4z"/>
<defs>
	
		<filter id="Adobe_OpacityMaskFilter_00000078027098044149395760000013959768835126908073_" filterUnits="userSpaceOnUse" x="112" y="5.9" width="21" height="26.1">
		<feColorMatrix  type="matrix" values="1 0 0 0 0  0 1 0 0 0  0 0 1 0 0  0 0 0 1 0"/>
	</filter>
</defs>
<mask maskUnits="userSpaceOnUse" x="112" y="5.9" width="21" height="26.1" id="path-2-outside-1_29_6_00000045591051808243670790000005882797090532638627_">
	
		<rect x="36.3" y="5" style="fill:#FFFFFF;filter:url(#Adobe_OpacityMaskFilter_00000078027098044149395760000013959768835126908073_);" width="133.2" height="28"/>
	<path d="M58.9,18.2h7v0.4h-0.2c-0.3,0-0.5,0.1-0.7,0.2c-0.2,0.1-0.4,0.3-0.5,0.5c-0.1,0.2-0.2,0.4-0.3,0.6C64,20.2,64,20.4,64,20.6
		v10.2c-0.6,0.2-1.2,0.3-2,0.5c-0.7,0.1-1.5,0.2-2.3,0.3c-0.8,0.1-1.6,0.2-2.5,0.2c-0.8,0.1-1.6,0.1-2.3,0.1c-2.9,0-5.5-0.4-7.6-1.1
		c-2.2-0.8-4-1.7-5.4-3c-1.4-1.2-2.5-2.6-3.2-4.2c-0.7-1.5-1-3.1-1-4.7s0.3-3.1,1-4.7c0.7-1.5,1.8-2.9,3.2-4.1
		c1.5-1.2,3.3-2.2,5.5-2.9C49.5,6.4,52.1,6,55.1,6c1.1,0,2.2,0.1,3.2,0.2s1.8,0.3,2.6,0.4c0.4,0.1,0.8,0.2,1.1,0.2
		c0.3,0.1,0.6,0.1,0.8,0.1h0.4v4h-0.5c-0.2-0.8-0.6-1.4-1.2-1.9C61,8.6,60.3,8.2,59.6,8c-0.7-0.3-1.5-0.4-2.4-0.5
		c-0.8-0.1-1.6-0.2-2.3-0.2c-2.4,0-4.5,0.3-6.3,1c-1.8,0.7-3.2,1.5-4.4,2.6c-1.1,1.1-2,2.3-2.5,3.6c-0.6,1.3-0.8,2.6-0.8,4
		c0,1.5,0.4,2.9,1.1,4.4c0.7,1.4,1.7,2.7,3,3.8c1.3,1.1,2.9,2,4.7,2.7c1.8,0.7,3.9,1,6.1,1c0.6,0,1.4-0.1,2.3-0.2
		c0.9-0.1,1.8-0.4,2.7-0.8v-8.9c0-0.2,0-0.4-0.1-0.6c-0.1-0.2-0.2-0.4-0.3-0.6c-0.1-0.2-0.3-0.4-0.5-0.5c-0.2-0.2-0.4-0.2-0.7-0.2
		h-0.2V18.2z"/>
	<path d="M78,31.1h0.2v0.4h-6.9v-0.4h0.2c0.2,0,0.4-0.1,0.6-0.2c0.2-0.2,0.4-0.3,0.5-0.5c0.2-0.2,0.3-0.4,0.3-0.6
		c0.1-0.3,0.1-0.5,0.1-0.7V8.7c0-0.2,0-0.4-0.1-0.6c-0.1-0.2-0.2-0.4-0.3-0.6c-0.1-0.2-0.3-0.4-0.5-0.5c-0.2-0.2-0.4-0.2-0.6-0.2
		h-0.2V6.4h8.5c3.2,0,5.7,0.5,7.5,1.5c1.8,1,2.7,2.4,2.7,4.4c0,1-0.2,1.8-0.6,2.5c-0.4,0.7-0.9,1.3-1.6,1.9
		c-0.7,0.5-1.5,0.9-2.4,1.3c-0.9,0.3-1.9,0.5-2.9,0.7l3.5,4.2c0.8,1,1.7,2,2.6,3c0.9,1,1.7,2,2.6,3c0.2,0.3,0.5,0.5,0.7,0.8
		c0.3,0.3,0.6,0.5,0.9,0.8c0.3,0.2,0.6,0.4,1,0.6c0.4,0.1,0.7,0.2,1.1,0.2v0.4h-2.1c-1.3,0-2.4-0.2-3.2-0.7c-0.8-0.5-1.5-1.1-2-1.7
		c-1.5-1.7-2.9-3.4-4.4-5.1c-1.4-1.7-2.9-3.4-4.3-5.1c-0.4,0-0.7-0.1-1.2-0.1c-0.4-0.1-0.8-0.1-1.1-0.2V29c0,0.2,0,0.4,0.1,0.7
		c0.1,0.2,0.2,0.4,0.3,0.6c0.2,0.2,0.3,0.4,0.5,0.5C77.5,31,77.8,31.1,78,31.1z M76.5,7.7v9.7h0.2c0.3,0,0.7,0.1,1.2,0.1
		c0.6,0,1.3,0,2.1,0c0.7,0,1.4-0.1,2.1-0.2c0.8-0.2,1.5-0.5,2.1-0.8c0.7-0.4,1.2-0.9,1.7-1.6c0.5-0.6,0.7-1.4,0.7-2.4
		S86.5,10.6,86,10c-0.5-0.6-1.1-1.1-1.9-1.4c-0.8-0.4-1.8-0.6-3-0.7c-1.2-0.1-2.5-0.2-3.8-0.2H76.5z"/>
	<path d="M99.4,6.4h7v0.4h-0.2c-0.2,0-0.4,0.1-0.6,0.2c-0.2,0.1-0.4,0.3-0.5,0.5c-0.1,0.2-0.2,0.4-0.3,0.6c-0.1,0.2-0.1,0.4-0.1,0.6
		V29c0,0.2,0,0.4,0.1,0.7c0.1,0.2,0.2,0.4,0.3,0.6c0.2,0.2,0.3,0.4,0.5,0.5c0.2,0.2,0.4,0.2,0.7,0.2h0.2v0.4h-7v-0.4h0.2
		c0.3,0,0.5-0.1,0.7-0.2c0.2-0.2,0.4-0.3,0.5-0.5c0.2-0.2,0.3-0.5,0.3-0.7c0.1-0.3,0.1-0.5,0.1-0.7V8.7c0-0.2,0-0.4-0.1-0.6
		c-0.1-0.2-0.2-0.4-0.3-0.6c-0.1-0.2-0.3-0.4-0.5-0.5c-0.2-0.2-0.4-0.2-0.7-0.2h-0.2V6.4z"/>
	<path d="M112.5,31.1h0.2c0.3,0,0.5-0.1,0.7-0.2c0.2-0.2,0.4-0.3,0.5-0.5c0.2-0.2,0.3-0.4,0.3-0.6c0.1-0.2,0.1-0.4,0.1-0.6V8.7
		c0-0.2,0-0.4-0.1-0.6c-0.1-0.2-0.2-0.4-0.3-0.6c-0.1-0.2-0.3-0.4-0.5-0.5c-0.2-0.2-0.4-0.2-0.7-0.2h-0.2V6.4h7v0.4h-0.2
		c-0.3,0-0.5,0.1-0.7,0.2c-0.2,0.1-0.4,0.3-0.5,0.5c-0.1,0.2-0.2,0.4-0.3,0.6c-0.1,0.2-0.1,0.4-0.1,0.6v21.3h10.7
		c0.6,0,1.2-0.1,1.6-0.3c0.5-0.2,0.8-0.5,1.1-0.8c0.3-0.4,0.6-0.7,0.7-1.1c0.2-0.4,0.2-0.8,0.2-1.1h0.5v4.8h-20V31.1z"/>
	<path d="M136.5,31.1h0.2c0.3,0,0.5-0.1,0.7-0.2c0.2-0.2,0.4-0.3,0.5-0.5c0.2-0.2,0.3-0.4,0.3-0.6c0.1-0.2,0.1-0.4,0.1-0.6V8.7
		c0-0.2,0-0.4-0.1-0.6c-0.1-0.2-0.2-0.4-0.3-0.6c-0.1-0.2-0.3-0.4-0.5-0.5c-0.2-0.2-0.4-0.2-0.7-0.2h-0.2V6.4h7v0.4h-0.2
		c-0.3,0-0.5,0.1-0.7,0.2c-0.2,0.1-0.4,0.3-0.5,0.5c-0.1,0.2-0.2,0.4-0.3,0.6c-0.1,0.2-0.1,0.4-0.1,0.6v21.3h10.7
		c0.6,0,1.2-0.1,1.6-0.3c0.5-0.2,0.8-0.5,1.1-0.8c0.3-0.4,0.6-0.7,0.7-1.1c0.2-0.4,0.2-0.8,0.2-1.1h0.5v4.8h-20V31.1z"/>
	<path d="M160.8,6.4h7v0.4h-0.2c-0.2,0-0.4,0.1-0.6,0.2c-0.2,0.1-0.4,0.3-0.5,0.5c-0.1,0.2-0.2,0.4-0.3,0.6C166,8.4,166,8.6,166,8.7
		V29c0,0.2,0,0.4,0.1,0.7c0.1,0.2,0.2,0.4,0.3,0.6c0.2,0.2,0.3,0.4,0.5,0.5c0.2,0.2,0.4,0.2,0.7,0.2h0.2v0.4h-7v-0.4h0.2
		c0.3,0,0.5-0.1,0.7-0.2c0.2-0.2,0.4-0.3,0.5-0.5c0.2-0.2,0.3-0.5,0.3-0.7c0.1-0.3,0.1-0.5,0.1-0.7V8.7c0-0.2,0-0.4-0.1-0.6
		c-0.1-0.2-0.2-0.4-0.3-0.6c-0.1-0.2-0.3-0.4-0.5-0.5c-0.2-0.2-0.4-0.2-0.7-0.2h-0.2V6.4z"/>
</mask>
<path class="st9" d="M112.5,31.1h0.2c0.3,0,0.5-0.1,0.7-0.2c0.2-0.2,0.4-0.3,0.5-0.5c0.2-0.2,0.3-0.4,0.3-0.6
	c0.1-0.2,0.1-0.4,0.1-0.6V8.7c0-0.2,0-0.4-0.1-0.6c-0.1-0.2-0.2-0.4-0.3-0.6c-0.1-0.2-0.3-0.4-0.5-0.5c-0.2-0.2-0.4-0.2-0.7-0.2
	h-0.2V6.4h7v0.4h-0.2c-0.3,0-0.5,0.1-0.7,0.2c-0.2,0.1-0.4,0.3-0.5,0.5c-0.1,0.2-0.2,0.4-0.3,0.6c-0.1,0.2-0.1,0.4-0.1,0.6v21.3
	h10.7c0.6,0,1.2-0.1,1.6-0.3c0.5-0.2,0.8-0.5,1.1-0.8c0.3-0.4,0.6-0.7,0.7-1.1c0.2-0.4,0.2-0.8,0.2-1.1h0.5v4.8h-20V31.1z"/>
<defs>
	
		<filter id="Adobe_OpacityMaskFilter_00000037675105815458223840000001963793072860045207_" filterUnits="userSpaceOnUse" x="130.8" y="5.9" width="16.6" height="26.1">
		<feColorMatrix  type="matrix" values="1 0 0 0 0  0 1 0 0 0  0 0 1 0 0  0 0 0 1 0"/>
	</filter>
</defs>
<mask maskUnits="userSpaceOnUse" x="130.8" y="5.9" width="16.6" height="26.1" id="path-2-outside-1_29_6_00000122684885897579785660000011084824517162263215_">
	
		<rect x="53" y="5" style="fill:#FFFFFF;filter:url(#Adobe_OpacityMaskFilter_00000037675105815458223840000001963793072860045207_);" width="104" height="28"/>
	<path d="M70.6,18.2h5.4v0.4h-0.2c-0.2,0-0.4,0.1-0.5,0.2c-0.2,0.1-0.3,0.3-0.4,0.5c-0.1,0.2-0.2,0.4-0.3,0.6
		c-0.1,0.2-0.1,0.4-0.1,0.6v10.2c-0.5,0.2-1,0.3-1.6,0.5c-0.6,0.1-1.2,0.2-1.8,0.3c-0.6,0.1-1.3,0.2-1.9,0.2
		c-0.7,0.1-1.3,0.1-1.8,0.1c-2.3,0-4.3-0.4-6-1.1c-1.7-0.8-3.1-1.7-4.2-3c-1.1-1.2-2-2.6-2.5-4.2C54.3,22,54,20.5,54,18.9
		s0.3-3.1,0.8-4.7c0.6-1.5,1.4-2.9,2.5-4.1c1.1-1.2,2.6-2.2,4.3-2.9C63.3,6.4,65.3,6,67.7,6c0.9,0,1.7,0.1,2.5,0.2s1.4,0.3,2,0.4
		c0.3,0.1,0.6,0.2,0.8,0.2c0.3,0.1,0.5,0.1,0.6,0.1H74v4h-0.4c-0.2-0.8-0.5-1.4-0.9-1.9c-0.4-0.5-0.9-0.8-1.5-1.1
		c-0.6-0.3-1.2-0.4-1.9-0.5c-0.6-0.1-1.2-0.2-1.8-0.2c-1.9,0-3.5,0.3-4.9,1c-1.4,0.7-2.5,1.5-3.4,2.6s-1.5,2.3-2,3.6
		c-0.4,1.3-0.6,2.6-0.6,4c0,1.5,0.3,2.9,0.8,4.4c0.6,1.4,1.3,2.7,2.4,3.8c1,1.1,2.2,2,3.6,2.7c1.4,0.7,3,1,4.8,1
		c0.5,0,1.1-0.1,1.8-0.2c0.7-0.1,1.4-0.4,2.1-0.8v-8.9c0-0.2,0-0.4-0.1-0.6c-0.1-0.2-0.1-0.4-0.3-0.6c-0.1-0.2-0.2-0.4-0.4-0.5
		c-0.2-0.2-0.3-0.2-0.5-0.2h-0.2V18.2z"/>
	<path d="M85.6,31.1h0.2v0.4h-5.4v-0.4h0.2c0.2,0,0.3-0.1,0.5-0.2c0.2-0.2,0.3-0.3,0.4-0.5c0.1-0.2,0.2-0.4,0.3-0.6
		c0.1-0.3,0.1-0.5,0.1-0.7V8.7c0-0.2,0-0.4-0.1-0.6c-0.1-0.2-0.1-0.4-0.3-0.6c-0.1-0.2-0.2-0.4-0.4-0.5c-0.2-0.2-0.3-0.2-0.5-0.2
		h-0.2V6.4H87c2.5,0,4.5,0.5,5.9,1.5c1.4,1,2.1,2.4,2.1,4.4c0,1-0.2,1.8-0.5,2.5c-0.3,0.7-0.7,1.3-1.3,1.9c-0.5,0.5-1.2,0.9-1.9,1.3
		c-0.7,0.3-1.5,0.5-2.3,0.7l2.7,4.2c0.7,1,1.3,2,2,3c0.7,1,1.4,2,2,3c0.2,0.3,0.4,0.5,0.6,0.8c0.2,0.3,0.5,0.5,0.7,0.8
		c0.3,0.2,0.5,0.4,0.8,0.6c0.3,0.1,0.6,0.2,0.8,0.2v0.4H97c-1,0-1.8-0.2-2.5-0.7c-0.6-0.5-1.2-1.1-1.6-1.7c-1.1-1.7-2.3-3.4-3.4-5.1
		c-1.1-1.7-2.2-3.4-3.3-5.1c-0.3,0-0.6-0.1-0.9-0.1c-0.3-0.1-0.6-0.1-0.9-0.2V29c0,0.2,0,0.4,0.1,0.7c0.1,0.2,0.1,0.4,0.2,0.6
		c0.1,0.2,0.3,0.4,0.4,0.5C85.2,31,85.4,31.1,85.6,31.1z M84.4,7.7v9.7h0.2c0.2,0,0.5,0.1,0.9,0.1c0.5,0,1,0,1.7,0
		c0.5,0,1.1-0.1,1.7-0.2c0.6-0.2,1.2-0.5,1.7-0.8c0.5-0.4,1-0.9,1.3-1.6c0.4-0.6,0.5-1.4,0.5-2.4s-0.2-1.7-0.6-2.4
		c-0.4-0.6-0.9-1.1-1.5-1.4c-0.6-0.4-1.4-0.6-2.3-0.7c-0.9-0.1-1.9-0.2-3-0.2H84.4z"/>
	<path d="M102.2,6.4h5.4v0.4h-0.2c-0.2,0-0.3,0.1-0.5,0.2c-0.2,0.1-0.3,0.3-0.4,0.5c-0.1,0.2-0.2,0.4-0.3,0.6
		c-0.1,0.2-0.1,0.4-0.1,0.6V29c0,0.2,0,0.4,0.1,0.7c0.1,0.2,0.1,0.4,0.2,0.6c0.1,0.2,0.3,0.4,0.4,0.5c0.2,0.2,0.3,0.2,0.5,0.2h0.2
		v0.4h-5.4v-0.4h0.2c0.2,0,0.4-0.1,0.5-0.2c0.2-0.2,0.3-0.3,0.4-0.5c0.1-0.2,0.2-0.5,0.3-0.7c0.1-0.3,0.1-0.5,0.1-0.7V8.7
		c0-0.2,0-0.4-0.1-0.6c-0.1-0.2-0.1-0.4-0.3-0.6c-0.1-0.2-0.2-0.4-0.4-0.5c-0.2-0.2-0.3-0.2-0.5-0.2h-0.2V6.4z"/>
	<path d="M112.5,31.1h0.2c0.2,0,0.4-0.1,0.5-0.2c0.2-0.2,0.3-0.3,0.4-0.5c0.1-0.2,0.2-0.4,0.3-0.6c0.1-0.2,0.1-0.4,0.1-0.6V8.7
		c0-0.2,0-0.4-0.1-0.6c-0.1-0.2-0.1-0.4-0.3-0.6c-0.1-0.2-0.2-0.4-0.4-0.5c-0.2-0.2-0.3-0.2-0.5-0.2h-0.2V6.4h5.5v0.4h-0.2
		c-0.2,0-0.4,0.1-0.5,0.2c-0.2,0.1-0.3,0.3-0.4,0.5c-0.1,0.2-0.2,0.4-0.3,0.6c-0.1,0.2-0.1,0.4-0.1,0.6v21.3h8.3
		c0.5,0,0.9-0.1,1.3-0.3c0.4-0.2,0.6-0.5,0.9-0.8c0.3-0.4,0.4-0.7,0.5-1.1c0.1-0.4,0.2-0.8,0.2-1.1h0.4v4.8h-15.6V31.1z"/>
	<path d="M131.3,31.1h0.2c0.2,0,0.4-0.1,0.5-0.2c0.2-0.2,0.3-0.3,0.4-0.5c0.1-0.2,0.2-0.4,0.3-0.6c0.1-0.2,0.1-0.4,0.1-0.6V8.7
		c0-0.2,0-0.4-0.1-0.6c-0.1-0.2-0.1-0.4-0.3-0.6c-0.1-0.2-0.2-0.4-0.4-0.5c-0.2-0.2-0.3-0.2-0.5-0.2h-0.2V6.4h5.5v0.4h-0.2
		c-0.2,0-0.4,0.1-0.5,0.2c-0.2,0.1-0.3,0.3-0.4,0.5c-0.1,0.2-0.2,0.4-0.3,0.6c-0.1,0.2-0.1,0.4-0.1,0.6v21.3h8.3
		c0.5,0,0.9-0.1,1.3-0.3c0.4-0.2,0.6-0.5,0.9-0.8c0.3-0.4,0.4-0.7,0.5-1.1c0.1-0.4,0.2-0.8,0.2-1.1h0.4v4.8h-15.6V31.1z"/>
	<path d="M150.2,6.4h5.4v0.4h-0.2c-0.2,0-0.3,0.1-0.5,0.2c-0.2,0.1-0.3,0.3-0.4,0.5c-0.1,0.2-0.2,0.4-0.3,0.6
		c-0.1,0.2-0.1,0.4-0.1,0.6V29c0,0.2,0,0.4,0.1,0.7c0.1,0.2,0.1,0.4,0.2,0.6c0.1,0.2,0.3,0.4,0.4,0.5c0.2,0.2,0.3,0.2,0.5,0.2h0.2
		v0.4h-5.4v-0.4h0.2c0.2,0,0.4-0.1,0.5-0.2c0.2-0.2,0.3-0.3,0.4-0.5c0.1-0.2,0.2-0.5,0.3-0.7c0.1-0.3,0.1-0.5,0.1-0.7V8.7
		c0-0.2,0-0.4-0.1-0.6c-0.1-0.2-0.1-0.4-0.3-0.6c-0.1-0.2-0.2-0.4-0.4-0.5c-0.2-0.2-0.3-0.2-0.5-0.2h-0.2V6.4z"/>
</mask>
<path class="st11" d="M131.3,31.1h0.2c0.2,0,0.4-0.1,0.5-0.2c0.2-0.2,0.3-0.3,0.4-0.5c0.1-0.2,0.2-0.4,0.3-0.6
	c0.1-0.2,0.1-0.4,0.1-0.6V8.7c0-0.2,0-0.4-0.1-0.6c-0.1-0.2-0.1-0.4-0.3-0.6c-0.1-0.2-0.2-0.4-0.4-0.5c-0.2-0.2-0.3-0.2-0.5-0.2
	h-0.2V6.4h5.5v0.4h-0.2c-0.2,0-0.4,0.1-0.5,0.2c-0.2,0.1-0.3,0.3-0.4,0.5c-0.1,0.2-0.2,0.4-0.3,0.6c-0.1,0.2-0.1,0.4-0.1,0.6v21.3
	h8.3c0.5,0,0.9-0.1,1.3-0.3c0.4-0.2,0.6-0.5,0.9-0.8c0.3-0.4,0.4-0.7,0.5-1.1c0.1-0.4,0.2-0.8,0.2-1.1h0.4v4.8h-15.6V31.1z"/>
<defs>
	
		<filter id="Adobe_OpacityMaskFilter_00000009558480956040138780000000879643224756962472_" filterUnits="userSpaceOnUse" x="149.7" y="5.9" width="6.4" height="26.1">
		<feColorMatrix  type="matrix" values="1 0 0 0 0  0 1 0 0 0  0 0 1 0 0  0 0 0 1 0"/>
	</filter>
</defs>
<mask maskUnits="userSpaceOnUse" x="149.7" y="5.9" width="6.4" height="26.1" id="path-2-outside-1_29_6_00000003084646833134793040000000953511213789004735_">
	
		<rect x="53" y="5" style="fill:#FFFFFF;filter:url(#Adobe_OpacityMaskFilter_00000009558480956040138780000000879643224756962472_);" width="104" height="28"/>
	<path d="M70.6,18.2h5.4v0.4h-0.2c-0.2,0-0.4,0.1-0.5,0.2c-0.2,0.1-0.3,0.3-0.4,0.5c-0.1,0.2-0.2,0.4-0.3,0.6
		c-0.1,0.2-0.1,0.4-0.1,0.6v10.2c-0.5,0.2-1,0.3-1.6,0.5c-0.6,0.1-1.2,0.2-1.8,0.3c-0.6,0.1-1.3,0.2-1.9,0.2
		c-0.7,0.1-1.3,0.1-1.8,0.1c-2.3,0-4.3-0.4-6-1.1c-1.7-0.8-3.1-1.7-4.2-3c-1.1-1.2-2-2.6-2.5-4.2C54.3,22,54,20.5,54,18.9
		s0.3-3.1,0.8-4.7c0.6-1.5,1.4-2.9,2.5-4.1c1.1-1.2,2.6-2.2,4.3-2.9C63.3,6.4,65.3,6,67.7,6c0.9,0,1.7,0.1,2.5,0.2s1.4,0.3,2,0.4
		c0.3,0.1,0.6,0.2,0.8,0.2c0.3,0.1,0.5,0.1,0.6,0.1H74v4h-0.4c-0.2-0.8-0.5-1.4-0.9-1.9c-0.4-0.5-0.9-0.8-1.5-1.1
		c-0.6-0.3-1.2-0.4-1.9-0.5c-0.6-0.1-1.2-0.2-1.8-0.2c-1.9,0-3.5,0.3-4.9,1c-1.4,0.7-2.5,1.5-3.4,2.6s-1.5,2.3-2,3.6
		c-0.4,1.3-0.6,2.6-0.6,4c0,1.5,0.3,2.9,0.8,4.4c0.6,1.4,1.3,2.7,2.4,3.8c1,1.1,2.2,2,3.6,2.7c1.4,0.7,3,1,4.8,1
		c0.5,0,1.1-0.1,1.8-0.2c0.7-0.1,1.4-0.4,2.1-0.8v-8.9c0-0.2,0-0.4-0.1-0.6c-0.1-0.2-0.1-0.4-0.3-0.6c-0.1-0.2-0.2-0.4-0.4-0.5
		c-0.2-0.2-0.3-0.2-0.5-0.2h-0.2V18.2z"/>
	<path d="M85.6,31.1h0.2v0.4h-5.4v-0.4h0.2c0.2,0,0.3-0.1,0.5-0.2c0.2-0.2,0.3-0.3,0.4-0.5c0.1-0.2,0.2-0.4,0.3-0.6
		c0.1-0.3,0.1-0.5,0.1-0.7V8.7c0-0.2,0-0.4-0.1-0.6c-0.1-0.2-0.1-0.4-0.3-0.6c-0.1-0.2-0.2-0.4-0.4-0.5c-0.2-0.2-0.3-0.2-0.5-0.2
		h-0.2V6.4H87c2.5,0,4.5,0.5,5.9,1.5c1.4,1,2.1,2.4,2.1,4.4c0,1-0.2,1.8-0.5,2.5c-0.3,0.7-0.7,1.3-1.3,1.9c-0.5,0.5-1.2,0.9-1.9,1.3
		c-0.7,0.3-1.5,0.5-2.3,0.7l2.7,4.2c0.7,1,1.3,2,2,3c0.7,1,1.4,2,2,3c0.2,0.3,0.4,0.5,0.6,0.8c0.2,0.3,0.5,0.5,0.7,0.8
		c0.3,0.2,0.5,0.4,0.8,0.6c0.3,0.1,0.6,0.2,0.8,0.2v0.4H97c-1,0-1.8-0.2-2.5-0.7c-0.6-0.5-1.2-1.1-1.6-1.7c-1.1-1.7-2.3-3.4-3.4-5.1
		c-1.1-1.7-2.2-3.4-3.3-5.1c-0.3,0-0.6-0.1-0.9-0.1c-0.3-0.1-0.6-0.1-0.9-0.2V29c0,0.2,0,0.4,0.1,0.7c0.1,0.2,0.1,0.4,0.2,0.6
		c0.1,0.2,0.3,0.4,0.4,0.5C85.2,31,85.4,31.1,85.6,31.1z M84.4,7.7v9.7h0.2c0.2,0,0.5,0.1,0.9,0.1c0.5,0,1,0,1.7,0
		c0.5,0,1.1-0.1,1.7-0.2c0.6-0.2,1.2-0.5,1.7-0.8c0.5-0.4,1-0.9,1.3-1.6c0.4-0.6,0.5-1.4,0.5-2.4s-0.2-1.7-0.6-2.4
		c-0.4-0.6-0.9-1.1-1.5-1.4c-0.6-0.4-1.4-0.6-2.3-0.7c-0.9-0.1-1.9-0.2-3-0.2H84.4z"/>
	<path d="M102.2,6.4h5.4v0.4h-0.2c-0.2,0-0.3,0.1-0.5,0.2c-0.2,0.1-0.3,0.3-0.4,0.5c-0.1,0.2-0.2,0.4-0.3,0.6
		c-0.1,0.2-0.1,0.4-0.1,0.6V29c0,0.2,0,0.4,0.1,0.7c0.1,0.2,0.1,0.4,0.2,0.6c0.1,0.2,0.3,0.4,0.4,0.5c0.2,0.2,0.3,0.2,0.5,0.2h0.2
		v0.4h-5.4v-0.4h0.2c0.2,0,0.4-0.1,0.5-0.2c0.2-0.2,0.3-0.3,0.4-0.5c0.1-0.2,0.2-0.5,0.3-0.7c0.1-0.3,0.1-0.5,0.1-0.7V8.7
		c0-0.2,0-0.4-0.1-0.6c-0.1-0.2-0.1-0.4-0.3-0.6c-0.1-0.2-0.2-0.4-0.4-0.5c-0.2-0.2-0.3-0.2-0.5-0.2h-0.2V6.4z"/>
	<path d="M112.5,31.1h0.2c0.2,0,0.4-0.1,0.5-0.2c0.2-0.2,0.3-0.3,0.4-0.5c0.1-0.2,0.2-0.4,0.3-0.6c0.1-0.2,0.1-0.4,0.1-0.6V8.7
		c0-0.2,0-0.4-0.1-0.6c-0.1-0.2-0.1-0.4-0.3-0.6c-0.1-0.2-0.2-0.4-0.4-0.5c-0.2-0.2-0.3-0.2-0.5-0.2h-0.2V6.4h5.5v0.4h-0.2
		c-0.2,0-0.4,0.1-0.5,0.2c-0.2,0.1-0.3,0.3-0.4,0.5c-0.1,0.2-0.2,0.4-0.3,0.6c-0.1,0.2-0.1,0.4-0.1,0.6v21.3h8.3
		c0.5,0,0.9-0.1,1.3-0.3c0.4-0.2,0.6-0.5,0.9-0.8c0.3-0.4,0.4-0.7,0.5-1.1c0.1-0.4,0.2-0.8,0.2-1.1h0.4v4.8h-15.6V31.1z"/>
	<path d="M131.3,31.1h0.2c0.2,0,0.4-0.1,0.5-0.2c0.2-0.2,0.3-0.3,0.4-0.5c0.1-0.2,0.2-0.4,0.3-0.6c0.1-0.2,0.1-0.4,0.1-0.6V8.7
		c0-0.2,0-0.4-0.1-0.6c-0.1-0.2-0.1-0.4-0.3-0.6c-0.1-0.2-0.2-0.4-0.4-0.5c-0.2-0.2-0.3-0.2-0.5-0.2h-0.2V6.4h5.5v0.4h-0.2
		c-0.2,0-0.4,0.1-0.5,0.2c-0.2,0.1-0.3,0.3-0.4,0.5c-0.1,0.2-0.2,0.4-0.3,0.6c-0.1,0.2-0.1,0.4-0.1,0.6v21.3h8.3
		c0.5,0,0.9-0.1,1.3-0.3c0.4-0.2,0.6-0.5,0.9-0.8c0.3-0.4,0.4-0.7,0.5-1.1c0.1-0.4,0.2-0.8,0.2-1.1h0.4v4.8h-15.6V31.1z"/>
	<path d="M150.2,6.4h5.4v0.4h-0.2c-0.2,0-0.3,0.1-0.5,0.2c-0.2,0.1-0.3,0.3-0.4,0.5c-0.1,0.2-0.2,0.4-0.3,0.6
		c-0.1,0.2-0.1,0.4-0.1,0.6V29c0,0.2,0,0.4,0.1,0.7c0.1,0.2,0.1,0.4,0.2,0.6c0.1,0.2,0.3,0.4,0.4,0.5c0.2,0.2,0.3,0.2,0.5,0.2h0.2
		v0.4h-5.4v-0.4h0.2c0.2,0,0.4-0.1,0.5-0.2c0.2-0.2,0.3-0.3,0.4-0.5c0.1-0.2,0.2-0.5,0.3-0.7c0.1-0.3,0.1-0.5,0.1-0.7V8.7
		c0-0.2,0-0.4-0.1-0.6c-0.1-0.2-0.1-0.4-0.3-0.6c-0.1-0.2-0.2-0.4-0.4-0.5c-0.2-0.2-0.3-0.2-0.5-0.2h-0.2V6.4z"/>
</mask>
<path class="st13" d="M150.2,6.4h5.4v0.4h-0.2c-0.2,0-0.3,0.1-0.5,0.2c-0.2,0.1-0.3,0.3-0.4,0.5c-0.1,0.2-0.2,0.4-0.3,0.6
	c-0.1,0.2-0.1,0.4-0.1,0.6V29c0,0.2,0,0.4,0.1,0.7c0.1,0.2,0.1,0.4,0.2,0.6c0.1,0.2,0.3,0.4,0.4,0.5c0.2,0.2,0.3,0.2,0.5,0.2h0.2
	v0.4h-5.4v-0.4h0.2c0.2,0,0.4-0.1,0.5-0.2c0.2-0.2,0.3-0.3,0.4-0.5c0.1-0.2,0.2-0.5,0.3-0.7c0.1-0.3,0.1-0.5,0.1-0.7V8.7
	c0-0.2,0-0.4-0.1-0.6c-0.1-0.2-0.1-0.4-0.3-0.6c-0.1-0.2-0.2-0.4-0.4-0.5c-0.2-0.2-0.3-0.2-0.5-0.2h-0.2V6.4z"/>
<image style="overflow:visible;" width="389" height="389" xlink:href="yemen.jpg"  transform="matrix(0.1155 0 0 0.1024 3.0155 5.0895)">
</image>
</svg>
