<?xml version="1.0" encoding="utf-8"?>
<!-- Generator: Adobe Illustrator 27.0.0, SVG Export Plug-In . SVG Version: 6.00 Build 0)  -->
<svg version="1.1" id="Layer_1" xmlns="http://www.w3.org/2000/svg" xmlns:xlink="http://www.w3.org/1999/xlink" x="0px" y="0px"
	 viewBox="0 0 1920 1080" style="enable-background:new 0 0 1920 1080;" xml:space="preserve">
<style type="text/css">
	.st0{fill:#B9A400;}
</style>
<g>
	<path class="st0" d="M1272.63,774.84l-0.48-3.82l3.88-0.43l0.45,3.85l-3.53,0.44l0.45,3.8l-3.87,0.48l-0.46-3.9L1272.63,774.84z
		 M1270.29,805.33c0.6-0.75,1.53-1.86,2.79-3.31c1.26-1.45,2.19-2.55,2.79-3.31c2.4-3.04,3.45-4.67,3.15-4.9
		c-0.26-0.2-0.71-0.02-1.36,0.54l-2.09,1.62c-1.29,0.92-2.46,0.97-3.49,0.16c-2.26-1.79-2.93-4.99-2.01-9.6
		c1.38-3.68,3.25-7.02,5.61-10c5.42-6.86,10.3-8.57,14.66-5.13c1.09,0.86,2.22,2.18,3.4,3.98c1.44,2.15,1.85,3.62,1.22,4.41
		c-0.26,0.33-0.58,0.34-0.97,0.04c0.11,0.09-0.45-0.76-1.67-2.53c-0.81-1.21-1.65-2.15-2.51-2.83c-1.43-1.13-3.05-1.21-4.83-0.23
		c-1.92,0.84-4.13,2.86-6.65,6.04c-1.31,1.66-2.75,4.07-4.33,7.24c-1.24,2.93-1.54,4.65-0.89,5.16c0.44,0.35,0.98,0.24,1.61-0.34
		l1.93-1.48c1.47-0.96,2.61-1.12,3.42-0.48c1.18,0.93,1.77,2.39,1.79,4.37c-0.11,2.07-1.11,4.3-3.01,6.71l-5.16,6.54L1270.29,805.33
		z"/>
	<path class="st0" d="M1241.1,835.77l1.84-1.93c1.75-1.83,3.31-3.27,4.68-4.3c1.38-1.04,2.92-1.54,4.63-1.51
		c1.71,0.03,3.56,0.39,5.55,1.09c-0.88-1.52-1.36-3.44-1.44-5.75s0.4-4.01,1.43-5.09l13.12-13.77l3.13,2.98l-12.76,13.38
		c-1.03,1.08-1.68,2.43-1.93,4.04c-0.25,1.61,0.2,2.96,1.35,4.06c1.81,1.73,4.53,3.28,8.14,4.66l1.65,5.61
		c-3.94-1.71-6.72-3.35-8.35-4.9c-2.15-2.05-4.45-3.12-6.88-3.21c-2.43-0.08-4.64,0.92-6.63,3.01l-4.42,4.63L1241.1,835.77z
		 M1276.01,847.24l-0.15-5.44l5.49-0.16l0.08,5.47L1276.01,847.24z"/>
	<path class="st0" d="M1212.12,866.72l-2.84-3.26l0.93-0.81c1.41-1.23,2.92-1.97,4.51-2.21c1.59-0.24,3.91,0.38,6.95,1.87
		c-0.49-2.03-0.73-4.1-0.72-6.2c0.01-2.11,0.32-3.41,0.91-3.9c2.37,0.14,4.86,0.04,7.47-0.31c0.55-4.43,2.08-7.74,4.59-9.93
		l7.92-6.91l2.84,3.26l-1.51,1.32c-4.5,3.93-7.54,6.85-9.11,8.76c-1.57,1.91-2.2,3.58-1.9,4.99l2.87,7.3
		c0.96,2.42,1.5,4.48,1.61,6.15c0.11,1.68-0.23,2.86-1.03,3.56c-2.9,2.53-6.37,1.53-10.42-2.99c-4.05-4.52-8.03-5.08-11.93-1.67
		L1212.12,866.72z M1223.11,856.76c-0.05,2.44,0.83,4.7,2.65,6.78c1.2,1.38,2.45,2.36,3.74,2.95c1.29,0.58,2.32,0.52,3.1-0.19
		c0.47-0.38,0.43-1.81-0.14-4.28c-0.57-2.47-1.16-4.45-1.78-5.94C1227.97,856.61,1225.45,856.83,1223.11,856.76z"/>
	<path class="st0" d="M1180.43,869.24l0.83-5.33l5.42,0.89l-0.88,5.37l-4.91-0.78l-0.88,5.32l-5.38-0.83l0.84-5.43L1180.43,869.24z
		 M1175.06,888.19l2.16-1.57c2.05-1.49,3.85-2.61,5.39-3.38c1.54-0.77,3.15-0.99,4.83-0.65c1.67,0.33,3.43,1.03,5.26,2.07
		c-0.59-1.66-0.72-3.63-0.38-5.91c0.34-2.29,1.12-3.87,2.33-4.75l15.4-11.16l2.54,3.5l-14.98,10.85c-1.21,0.88-2.09,2.09-2.63,3.62
		c-0.54,1.53-0.34,2.94,0.59,4.24c1.47,2.03,3.86,4.05,7.16,6.05l0.61,5.81c-3.56-2.4-6-4.51-7.32-6.33
		c-1.75-2.41-3.81-3.88-6.18-4.4s-4.73,0.06-7.06,1.75l-5.18,3.75L1175.06,888.19z"/>
	<path class="st0" d="M1175.88,887.65l2.21,3.71l-29.26,17.44c-2.09,1.25-2.77,2.5-2.02,3.74c2.93,4.91,6.25,9.81,9.96,14.69
		c3.71,4.88,6.64,7.97,8.77,9.26c0.09,1.66,0.02,3.47-0.21,5.41c-1.87-1.26-3.54-2.05-5.02-2.37l-0.07-4.09
		c-7.97-10.12-13.26-17.37-15.88-21.76c-0.94-1.57-1.28-3.1-1.04-4.6c0.24-1.49,2.12-3.29,5.65-5.39L1175.88,887.65z"/>
	<path class="st0" d="M1110.27,925.6c2.29,5.14,4.96,10.53,7.99,16.18c3.17,5.95,5.41,10.38,6.7,13.29l-0.96,6.82l-2.12-5.02
		c-1.6-3.57-3.11-6.83-4.55-9.75c-2.25-4.59-3.8-7.83-4.64-9.71C1109.89,931.14,1109.09,927.2,1110.27,925.6z"/>
	<path class="st0" d="M942.19,970.89l-0.53-4.65c3.57,0.47,8.15,0.39,13.74-0.25c5.03-0.57,7.92-1.26,8.68-2.08
		c0.76-0.82,1.05-1.95,0.89-3.39c-0.06-0.56-0.47-1.68-1.23-3.36c-0.76-1.68-1.4-3.26-1.92-4.74c-0.52-1.47-0.85-2.85-1-4.13
		c-0.09-0.77,0.11-1.66,0.58-2.68c0.47-1.02,0.89-1.55,1.24-1.59l0.94,2.65c0.99,2.7,1.96,5.01,2.91,6.96
		c1.59,3.03,2.47,5.27,2.64,6.74c0.36,3.14-0.85,5.51-3.62,7.1c1.95,2.25,3.1,4.86,3.43,7.82c0.66,5.8-2.22,9.06-8.62,9.79
		c-2.35,0.27-5.17-0.92-8.45-3.57C948.58,978.86,945.35,975.32,942.19,970.89z M945.5,970.17c2.7,3.42,5.35,6.14,7.96,8.16
		c2.61,2.02,4.77,2.93,6.47,2.74c3.82-0.43,5.48-2.84,4.99-7.22c-0.2-1.75-0.73-3.46-1.61-5.12c-2.25,0.8-4.89,1.37-7.94,1.71
		C950.9,970.93,947.61,970.85,945.5,970.17z"/>
	<path class="st0" d="M899.38,967.41l6.22-0.18c5.08-0.14,8.93,2.83,11.54,8.92c1.62-0.91,3.29-2.2,5.02-3.87
		c2.35-2.22,4.2-3.74,5.55-4.54c1.35-0.8,3.24-1.24,5.68-1.3l9.17-0.26l0.12,4.32l-9.56,0.27c-2.06,0.06-3.74,0.43-5.05,1.11
		c-1.31,0.68-3.4,2.22-6.29,4.63c-1.12,0.95-2.14,1.71-3.06,2.3c2.23,2.42,4.61,3.69,7.14,3.81l-1.96,5.19
		c-2.74,0.97-5.21,1.49-7.41,1.55c-5.69,0.16-8.59-1.48-8.69-4.92c-0.08-2.67,2.19-4.99,6.8-6.95c-1.6-2.56-3.08-4.2-4.45-4.92
		c-1.37-0.72-3.18-1.05-5.43-0.99l-5.24,0.15L899.38,967.41z M922.46,985.04c-2.92-1.42-5-3.01-6.22-4.78
		c-3.04,1.17-4.54,2.38-4.5,3.65c0.05,1.76,1.67,2.59,4.85,2.5C917.88,986.37,919.84,985.91,922.46,985.04z"/>
	<path class="st0" d="M860.06,970.46c-0.57-0.67-1.61-1.04-3.11-1.12l0.23-4.28c1.94,0.11,3.39,1.3,4.35,3.58
		c2.35-2.1,6.72-2.98,13.14-2.62l25.66,1.41l-0.24,4.32l-10.5-0.58c-3.13,2.32-4.81,5.62-5.05,9.9
		c-0.67,12.19-0.38,19.47,0.88,21.84l-2.87,4.14l-3.11-3.55c1.11-1.07,1.82-4.37,2.13-9.92c0.09-1.59,0.15-3.71,0.17-6.36
		c0.05-2.65,0.09-4.29,0.13-4.92c0.06-1.08,0.67-3.63,1.83-7.65l-6.71,6.81c-2.02,2.07-3.99,3.6-5.92,4.59
		c-1.93,0.99-3.74,1.43-5.43,1.34c-2.43-0.13-4.27-1.27-5.52-3.42c-1.24-2.15-1.78-4.74-1.62-7.78
		C858.64,973.87,859.15,971.96,860.06,970.46z M884.78,970.9l-17.41-0.96c-2.13-0.12-3.62,0.19-4.49,0.92
		c-0.86,0.73-1.34,1.97-1.44,3.72c-0.12,2.11,0.38,3.99,1.49,5.64c1.11,1.66,2.61,2.54,4.5,2.64c1.36,0.07,2.85-0.28,4.48-1.08
		s4.14-2.88,7.54-6.26C881.87,973.18,883.64,971.64,884.78,970.9z"/>
	<path class="st0" d="M814.74,963.43l0.6-4.28l1.22,0.17c1.86,0.26,3.4,0.91,4.62,1.96c1.23,1.05,2.27,3.21,3.14,6.48
		c1.21-1.7,2.61-3.24,4.21-4.61c1.6-1.37,2.78-1.99,3.55-1.86c1.44,1.88,3.15,3.7,5.13,5.44c3.71-2.49,7.21-3.5,10.51-3.04
		l10.41,1.46l-0.6,4.28l-1.98-0.28c-5.92-0.83-10.11-1.21-12.58-1.14c-2.47,0.07-4.14,0.68-5.01,1.83l-3.64,6.95
		c-1.2,2.32-2.4,4.07-3.59,5.25c-1.2,1.18-2.31,1.7-3.36,1.55c-3.81-0.53-5.33-3.81-4.57-9.83c0.76-6.02-1.42-9.39-6.55-10.11
		L814.74,963.43z M829.47,965.22c-1.88,1.56-3,3.71-3.39,6.45c-0.25,1.81-0.18,3.39,0.22,4.75c0.4,1.36,1.13,2.1,2.17,2.22
		c0.6,0.11,1.65-0.86,3.14-2.91s2.6-3.79,3.33-5.23C832.77,968.79,830.94,967.03,829.47,965.22z"/>
	<path class="st0" d="M816.26,959.33l-0.96,4.21l-33.21-7.6c-2.38-0.54-3.73-0.11-4.05,1.31c-1.28,5.57-2.26,11.41-2.94,17.5
		c-0.69,6.09-0.7,10.35-0.05,12.75c-1.08,1.27-2.38,2.52-3.89,3.76c-0.48-2.2-1.14-3.93-1.99-5.18l2.78-3.01
		c1.23-12.82,2.41-21.72,3.55-26.71c0.41-1.78,1.22-3.13,2.42-4.04s3.81-0.91,7.81,0L816.26,959.33z"/>
	<path class="st0" d="M742.54,941.5c-1.88,5.3-3.67,11.05-5.36,17.23c-1.8,6.5-3.24,11.25-4.3,14.25l-5.4,4.28l1.92-5.1
		c1.31-3.69,2.45-7.09,3.43-10.2c1.53-4.88,2.64-8.29,3.33-10.23C738.45,945.26,740.58,941.85,742.54,941.5z"/>
	<path class="st0" d="M613.72,891.44l-4.94,33.9l-5.2-3.75l2.45-15.46c0.69-4.03,1.45-7.92,2.07-12.09l-0.23-0.17
		c-3.71,1.94-7.33,3.76-10.94,5.69l-13.72,7.32l-5.02-3.62l30.62-15.37l9.86-13.66l4.9,3.54L613.72,891.44z"/>
	<path class="st0" d="M577.95,864.67c-7.72,8.35-18.65,7.66-25.53,1.31c-7.4-6.84-7.29-15.66-0.59-22.9c0.93-1,1.91-1.86,2.66-2.45
		l21.73,20.09l-3.13,3.38l-19.14-17.69l2.23-0.19c-5.62,6.08-5.39,11.88-0.69,16.23c4.76,4.4,12.21,4.62,18.12-1.78
		c6.16-6.66,4.95-14.05-0.76-19.33c-3.07-2.83-6.38-4.13-10.07-4.8l1.05-4.32c4.1,0.65,8.65,2.31,12.77,6.12
		C584.33,845.46,585.87,856.1,577.95,864.67z"/>
	<path class="st0" d="M523.31,835.76l-3.07-3.63l3.2-3.36l-0.09-0.11c-3.64,0.72-6.74,0.51-9.34-2.57
		c-2.23-2.64-2.08-5.59,0.35-8.96c-4.16,0.88-7.32,0.71-9.92-2.37c-3.16-3.74-2.1-8.4,3.23-12.91l19.14-16.17l3.81,4.51
		l-18.81,15.89c-3.08,2.6-3.93,4.83-2.26,6.81c1.58,1.87,3.79,1.7,7.75,0.81l19.36-16.36l3.53,4.18l-18.81,15.89
		c-3.08,2.6-4.02,4.72-2.35,6.7c1.58,1.87,3.98,1.92,7.84,0.92l19.36-16.36l3.81,4.51L523.31,835.76z"/>
	<path class="st0" d="M499.7,778.37c-9.55,6.18-19.97,2.81-25.05-5.04c-5.48-8.46-3.19-16.98,5.09-22.34
		c1.15-0.74,2.31-1.33,3.18-1.71L499,774.11l-3.87,2.5l-14.17-21.87l2.21,0.37c-6.95,4.5-8.16,10.18-4.68,15.55
		c3.52,5.44,10.68,7.49,18,2.75c7.61-4.93,8.27-12.39,4.04-18.92c-2.27-3.5-5.16-5.58-8.57-7.14l2.09-3.93
		c3.81,1.65,7.81,4.38,10.86,9.09C510.63,761.34,509.49,772.03,499.7,778.37z"/>
	<path class="st0" d="M452.8,734.36l-2.11-4.42l5.11-3l-0.12-0.26c-5.02-1.67-9.42-4.04-11.78-8.98
		c-3.56-7.47-0.79-13.03,7.53-16.99l19.63-9.36l2.57,5.39l-18.91,9.02c-5.98,2.85-7.78,6.26-5.33,11.4c1.8,3.77,4.89,5.41,10.4,7.25
		l22.03-10.51l2.57,5.39L452.8,734.36z"/>
	<path class="st0" d="M412.97,669.44c-2.6,0.84-5-0.5-5.84-3.11c-0.84-2.6,0.32-5.1,2.92-5.94c2.67-0.86,5,0.5,5.85,3.11
		C416.73,666.1,415.64,668.57,412.97,669.44z M428.2,662.02l4.98,15.42l-4.59,1.48l-6.81-21.1l33.3-10.75l1.84,5.69L428.2,662.02z"
		/>
	<path class="st0" d="M389.59,518.74l0.65-14.75c0.42-9.57,4.18-16.39,14.04-15.96c9.42,0.42,13.65,7.59,13.22,17.16l-0.38,8.63
		l19.92,0.88l-0.27,6.11L389.59,518.74z M412.57,505.85c0.32-7.34-2.52-11.5-8.56-11.76c-6.19-0.27-8.59,3.66-8.92,10.99l-0.34,7.77
		l17.48,0.77L412.57,505.85z M412.84,501.46l25.38-13.29l-0.3,6.83l-22.12,11.35L412.84,501.46z"/>
	<path class="st0" d="M423.36,464.01c-11.2-2.01-16.5-11.6-14.84-20.81c1.78-9.92,9.28-14.57,18.99-12.83
		c1.35,0.24,2.6,0.61,3.49,0.92l-5.24,29.12l-4.54-0.82l4.61-25.65l1.36,1.78c-8.15-1.47-12.91,1.85-14.05,8.15
		c-1.15,6.38,2.68,12.77,11.25,14.31c8.93,1.61,14.51-3.39,15.88-11.04c0.74-4.11,0.05-7.6-1.37-11.07l4.21-1.44
		c1.66,3.81,2.71,8.53,1.71,14.06C442.98,459.05,434.84,466.07,423.36,464.01z"/>
	<path class="st0" d="M447.76,410.6l-2.93-3.82c3.98-2.95,7.22-6.9,9.19-13c1.81-5.62,0.37-9.11-2.44-10.02
		c-2.54-0.82-4.74-0.09-9.51,8.36c-4.59,8.13-8.93,11.49-13.93,9.88c-5.35-1.72-7.93-7.78-4.99-16.89c1.64-5.07,5.26-9.5,8.58-12.06
		l2.75,3.91c-3.12,2.4-5.73,5.79-7.1,10.04c-1.81,5.62-0.21,8.4,2.32,9.22c2.88,0.93,5.04-1.55,8.69-7.94
		c5.96-10.26,9.56-12.05,14.7-10.39c5.41,1.75,8.23,8.48,5.16,18.01C456.15,402.41,451.87,407.46,447.76,410.6z"/>
	<path class="st0" d="M462.73,344.5l-14.95-7.12l-4.27,8.97l-4.03-1.92l4.04-9.32l-9.8-5.55l2.14-4.49l10.14,4.83l7.37-15.47
		l4.35,2.08l-7.37,15.47l15.02,7.16c5.66,2.69,9.48,2.2,12.39-3.91c1.39-2.93,1.92-5.54,2.16-8.22l4.52,0.72
		c-0.32,3.36-0.93,6.81-2.82,10.78C477.22,347.74,470.53,348.22,462.73,344.5z"/>
	<path class="st0" d="M489.07,303.68c-6.59-4.26-5.8-12.5,2.81-28.46c-4.11-2.4-8.74-2.66-12.42,3.02
		c-2.46,3.81-3.08,8.73-3.15,12.54l-4.68-0.2c0.02-4.27,0.93-10.72,4.26-15.85c5.2-8.04,12.52-8.88,19.83-4.14l18.01,11.66
		l-2.7,4.17l-4.26-2.16l-0.12,0.18c0.46,4.85-0.1,10.49-2.76,14.6C500.34,304.54,494.33,307.08,489.07,303.68z M502.82,282.3
		l-7.62-4.93c-7.17,13.2-7.16,18.61-3.29,21.11c3.32,2.15,6.61-0.01,8.8-3.39C502.87,291.77,503.41,287.49,502.82,282.3z"/>
	<path class="st0" d="M518.24,253.95l-16.62-14.03l3.86-4.57l16.01,13.52c5.01,4.23,8.91,4.51,12.63,0.11
		c2.6-3.08,3.07-6.54,2.12-12.44l-18.54-15.65l3.85-4.57l26.74,22.57l-3.2,3.8l-5-3.56l-0.19,0.22c0.86,5.34,0.41,10.34-3.07,14.46
		C531.49,260.14,525.29,259.89,518.24,253.95z"/>
	<path class="st0" d="M545.6,191.51l3.65-3.37l6.04,5.69l0.11-0.1c-1.16-6.67,0.51-12.92,5.27-17.32c1.9-1.76,3.73-2.96,6.05-3.63
		l2.47,4.68c-2.34,1.08-3.53,1.7-5.54,3.55c-3.86,3.57-5.7,8.9-3.78,17.12l13.88,15.02l-4.39,4.06L545.6,191.51z"/>
	<path class="st0" d="M602.87,175.98c-4.59-6.36-0.87-13.76,12.94-25.5c-2.96-3.73-7.18-5.65-12.67-1.69
		c-3.68,2.66-6.03,7.02-7.48,10.55l-4.29-1.88c1.57-3.98,4.76-9.65,9.72-13.23c7.76-5.61,14.89-3.73,19.99,3.33l12.56,17.4
		l-4.03,2.91l-3.19-3.56l-0.18,0.13c-1.32,4.69-3.89,9.74-7.86,12.6C613.07,180.88,606.54,181.06,602.87,175.98z M623.44,161.05
		l-5.31-7.36c-11.47,9.7-13.42,14.75-10.72,18.49c2.32,3.21,6.16,2.39,9.43,0.03C620.05,169.89,622.11,166.09,623.44,161.05z"/>
	<path class="st0" d="M638.47,120.56l4.28-2.38l3.3,4.92l0.25-0.14c1.36-5.12,3.45-9.66,8.24-12.31c7.24-4.02,12.95-1.59,17.42,6.47
		l10.55,19.01l-5.23,2.9l-10.16-18.32c-3.21-5.79-6.73-7.38-11.7-4.62c-3.65,2.03-5.09,5.21-6.59,10.82l11.84,21.34l-5.23,2.9
		L638.47,120.56z"/>
	<path class="st0" d="M707.73,109.57l-6.29-15.32l-9.19,3.77l-1.69-4.13l9.26-4.19l-3.53-10.69l4.6-1.89l4.26,10.39l15.86-6.5
		l1.83,4.46l-15.86,6.5l6.31,15.39c2.38,5.8,5.54,8,11.8,5.43c3-1.23,5.15-2.81,7.13-4.64l2.87,3.57c-2.49,2.27-5.27,4.42-9.33,6.09
		C716.29,121.7,711.01,117.56,707.73,109.57z"/>
</g>
</svg>
