<?xml version="1.0" encoding="utf-8"?>
<!-- Generator: Adobe Illustrator 27.0.0, SVG Export Plug-In . SVG Version: 6.00 Build 0)  -->
<svg version="1.1" id="Layer_1" xmlns="http://www.w3.org/2000/svg" xmlns:xlink="http://www.w3.org/1999/xlink" x="0px" y="0px"
	 viewBox="0 0 595.28 841.89" style="enable-background:new 0 0 595.28 841.89;" xml:space="preserve">
<style type="text/css">
	.st0{fill:#8B8131;}
</style>
<g>
	<path class="st0" d="M262.28,142.81l-0.37,0.1c-1.7,0.46-4.59,0.05-8.69-1.22c-2.91-0.9-4.76-1.24-5.6-1.01
		c-0.76,0.21-1.34,0.6-1.76,1.2c-0.41,0.59-0.55,1.2-0.4,1.83c0.15,0.64,1.27,1.52,3.33,2.65c2.95,1.61,4.61,3.11,4.95,4.51
		c1.11,4.65-1.62,9.92-8.16,15.85c-6.54,5.94-15.26,10.4-26.13,13.39c-10.16,2.79-18.7,3.05-25.63,0.81
		c-6.92-2.26-11.28-7.08-13.04-14.51c-0.89-3.67-1.1-8.26-0.68-13.75l8.78,0.02c-0.15,4.28,0.13,7.99,0.89,11.15
		c0.98,4.08,3.54,6.62,7.67,7.62c4.14,0.99,10.65,0.28,19.53-2.15c8.64-2.37,15.5-5.27,20.61-8.66c5.1-3.39,7.37-6.26,6.81-8.6
		c-0.15-0.67-1.2-1.59-3.14-2.76c-3.16-1.82-4.95-3.59-5.35-5.34c-0.68-2.86-0.13-5.69,1.64-8.52s4.28-4.68,7.49-5.56
		c2.07-0.57,5.08-0.15,9.02,1.25c2.6,0.9,4.37,1.22,5.26,0.97l0.37-0.1L262.28,142.81z M251.86,177.87l-6.59,1.82l-1.7-7.08
		l6.57-1.82L251.86,177.87z M264.65,174.36l-6.59,1.82l-1.7-7.08l6.57-1.82L264.65,174.36z"/>
	<path class="st0" d="M285.38,146.09h-0.22c-6.05,0.21-10.53-1.24-13.4-4.37c-2.68,3.32-7.02,5.07-13.01,5.28h-0.22l-0.33-11.2
		l0.64-0.02c5.42-0.19,8-4.19,7.78-12l-0.32-10.51l9.3-0.32l0.32,10.51c0.24,7.82,3.05,11.62,8.43,11.44l0.7-0.02L285.38,146.09z
		 M275.24,97.69l-9.51,0.32l-0.3-10.22l9.51-0.32L275.24,97.69z"/>
	<path class="st0" d="M340.3,152.6l-0.79-0.11c-3.22-0.44-6.05-1.63-8.53-3.58c-2.46-1.95-4.15-4.35-5.07-7.23
		c-2.08,2.68-4.72,4.54-7.9,5.59c-3.19,1.05-6.48,1.33-9.92,0.85c-4.67-0.65-8.29-2.73-10.85-6.26c-2.53,2.81-6.7,3.82-12.5,3.02
		l-2.49-0.34l1.34-11.12l2.29,0.31c1.98,0.28,3.64-0.1,5-1.13c1.34-1.03,2.57-2.94,3.65-5.72c3.14-7.83,6.4-13.33,9.78-16.46
		c3.38-3.14,7.32-4.4,11.81-3.78c3.89,0.54,7.11,2.37,9.65,5.51c2.54,3.14,4.11,7.14,4.7,12.02c1.31,10.69,4.76,16.43,10.39,17.2
		l0.79,0.11L340.3,152.6z M302.23,132.72c2.46,2.55,5.05,4.01,7.78,4.38c2.94,0.41,5.45-0.18,7.51-1.77
		c2.08-1.59,3.3-3.87,3.65-6.88c0.33-2.77-0.13-5.18-1.37-7.23c-1.24-2.05-2.94-3.22-5.05-3.51
		C310.37,117.1,306.2,122.1,302.23,132.72z"/>
	<path class="st0" d="M342.22,172.15l-7.58-2.43l2.25-8.1l7.6,2.43L342.22,172.15z M362.57,161.47l-0.2-0.07
		c-5.81-1.86-9.62-4.78-11.43-8.71c-3.54,2.23-8.16,2.42-13.89,0.57l-0.2-0.07l2.98-10.74l0.61,0.19c5.19,1.67,8.83-1.24,10.91-8.73
		l2.8-10.07l8.92,2.86l-2.8,10.07c-2.08,7.49-0.55,12.06,4.61,13.72l0.67,0.21L362.57,161.47z M355.97,176.57l-7.53-2.42l2.25-8.1
		l7.53,2.42L355.97,176.57z"/>
	<path class="st0" d="M388.29,148.52c-2.71,6.88-6.4,11.33-11.14,13.36c-4.72,2.03-10.24,1.61-16.54-1.25l-0.2-0.09l4.05-10.34
		l3.65,1.65c4.96,2.24,8.86-0.23,11.69-7.44l22.18-56.5l8.58,3.89L388.29,148.52z"/>
	<path class="st0" d="M401.89,181.57l-8.14-4.86l38.11-73.65l8.14,4.86L401.89,181.57z"/>
	<path class="st0" d="M479.74,254.13l-0.55-0.62c-2.22-2.49-3.73-5.34-4.52-8.52c-0.79-3.19-0.71-6.21,0.26-9.05
		c-3.19,0.69-6.33,0.35-9.43-0.97c-3.08-1.33-5.81-3.32-8.19-5.99c-3.61-4.03-5.49-7.68-5.7-10.94c-1.37,0.09-3.15-0.54-5.35-1.83
		c-1.7-1.01-3.03-1.55-4-1.62c-0.98-0.07-2.05,0.25-3.19,0.95c-1.16,0.69-2.4,1.73-3.75,3.11l-14.34,14.75l-6.44-7.23l14.87-15.32
		c4.13-4.24,7.6-6.72,10.44-7.44c2.84-0.72,6.02-0.19,9.51,1.55c2.49,1.24,4.67,1.29,6.5,0.15c7.76-4.86,14.17-7.53,19.23-8.01
		c5.05-0.47,9.26,1.16,12.62,4.92c2.46,2.76,3.8,6.34,4.03,10.74c0.22,4.4-0.81,8.58-3.08,12.57c-5.22,9.2-5.87,16-1.95,20.4
		l0.55,0.62L479.74,254.13z M460.74,213.81c1.17,3.2,2.67,5.8,4.46,7.83c2.05,2.29,4.35,3.53,6.9,3.69c2.54,0.16,4.84-0.8,6.86-2.89
		c1.87-1.93,2.94-4.12,3.19-6.54c0.24-2.42-0.4-4.48-1.9-6.16c-1.6-1.8-4.15-2.32-7.67-1.59
		C469.07,208.93,465.12,210.81,460.74,213.81z"/>
	<path class="st0" d="M506.53,307.39l-6.4-12.09c-2.71-5.13-3.49-11.93-2.33-20.38c-7.35-3.29-12.36-7.48-15.05-12.57l-6.4-12.09
		l9.07-5.53l6.48,12.29c1.9,3.59,4.14,6.38,6.73,8.32c1.73-14.04,4.65-22.31,8.73-24.82c3.43-2.09,7.38-1.55,11.83,1.62
		c4.45,3.17,8.11,7.52,11.02,13.01c3.03,5.74,4.69,11.4,4.96,16.99c0.27,5.59-1.31,9.45-4.78,11.58c-2.05,1.24-5.26,1.42-9.64,0.51
		c-4.37-0.9-9.32-2.7-14.83-5.38c0.41,3.97,1.46,7.53,3.14,10.71l6.48,12.3L506.53,307.39z M506.28,269.76
		c9.94,5.78,15.78,8.16,17.52,7.09c2.92-1.78,2.01-7.14-2.73-16.12c-4.67-8.86-8.45-12.42-11.29-10.69
		C507.99,251.14,506.81,257.71,506.28,269.76z"/>
	<path class="st0" d="M525.46,385.75l-0.85-3.63c-1.72-7.36-0.87-12.95,2.54-16.74c-5.74-6.12-9.99-15.13-12.75-27.02l-8.53-36.52
		l10.13-2.73l2.13,9.14l62.8-16.9l2.27,9.69l-55.8,15.03c22.74,8.73,35.28,18.13,37.64,28.2c1.46,6.24,0.62,12.02-2.49,17.3
		c-3.12,5.28-7.83,8.76-14.08,10.46c-4.3,1.16-8.4,0.97-12.31-0.55c-1.73,1.85-2.24,4.33-1.52,7.46l0.94,4.07L525.46,385.75z
		 M521.55,322.88l2.98,12.76c2.19,9.37,5.19,16.46,9.02,21.3s7.97,6.65,12.43,5.44c3.19-0.85,5.68-2.83,7.48-5.88
		c1.79-3.07,2.33-6.24,1.55-9.51C553.28,339.52,542.13,331.49,521.55,322.88z"/>
	<path class="st0" d="M527.71,452.53l-0.13-0.85c-0.57-3.43-0.35-6.7,0.64-9.81s2.62-5.56,4.89-7.36c-3.02-1.33-5.45-3.47-7.34-6.42
		c-1.89-2.94-3.12-6.26-3.73-9.9c-0.82-4.98-0.06-9.3,2.32-12.99c-3.26-1.75-5.4-5.72-6.42-11.9l-0.44-2.67l10.27-1.96l0.4,2.43
		c0.35,2.11,1.19,3.71,2.49,4.78c1.33,1.08,3.38,1.75,6.18,2.03c7.9,0.87,13.75,2.57,17.55,5.09c3.8,2.51,6.11,6.18,6.9,10.97
		c0.68,4.15,0.02,7.99-2.01,11.52c-2.03,3.53-5.11,6.34-9.26,8.42c-9.1,4.54-13.16,9.81-12.18,15.81l0.13,0.85L527.71,452.53z
		 M533.97,407.56c-1.52,3.29-2.05,6.38-1.57,9.28c0.52,3.14,1.79,5.53,3.82,7.18c2.03,1.65,4.43,2.23,7.21,1.68
		c2.56-0.49,4.56-1.68,6.02-3.57c1.45-1.89,1.98-3.97,1.6-6.22C550.28,411.24,544.59,408.45,533.97,407.56z"/>
	<path class="st0" d="M537.29,471.89c-6.81-1.52-11.59-4.58-14.35-9.16c-2.75-4.6-3.43-10.48-2.05-17.69l0.05-0.23l10.21,2.27
		l-0.81,4.17c-1.1,5.66,1.92,9.28,9.04,10.87l55.89,12.46l-1.89,9.79L537.29,471.89z"/>
	<path class="st0" d="M509.75,492.6l2.86-9.51l74.64,25.93l-2.86,9.51L509.75,492.6z"/>
	<path class="st0" d="M499.71,540.59c1.33,0.19,2.77,0.46,4.38,0.75c1.6,0.3,3.41,0.71,5.4,1.21c1.99,0.51,4.24,1.15,6.76,1.93
		c2.49,0.78,5.35,1.75,8.53,2.89c0.22,1.01,0.24,2.17,0.08,3.51c-0.17,1.34-0.62,2.61-1.34,3.85c-0.9,1.55-1.95,2.65-3.14,3.27
		c-1.19,0.62-2.75,0.62-4.69,0l-20.1-6.15l-0.15,0.26c1.1,1.47,2.33,3.02,3.68,4.65c1.35,1.62,2.77,3.25,4.24,4.92
		c1.48,1.67,2.97,3.29,4.48,4.89c1.51,1.61,3.03,3.13,4.54,4.56c-0.13,2.12-0.76,4.13-1.87,6.05c-0.9,1.55-1.97,2.63-3.16,3.23
		c-1.22,0.6-2.59,0.39-4.11-0.62c-1.11-0.75-2.32-1.77-3.61-3.05c-1.29-1.29-2.6-2.74-3.97-4.37c-1.35-1.62-2.71-3.35-4.08-5.22
		c-1.35-1.86-2.67-3.75-3.93-5.62c-1.27-1.89-2.4-3.75-3.45-5.55c-1.05-1.82-1.95-3.5-2.71-5.06c-1.31-2.6-2.29-4.86-2.95-6.78
		c-0.67-1.93-1.06-3.61-1.24-5.09c-0.15-1.45-0.09-2.76,0.22-3.92c0.3-1.16,0.76-2.27,1.37-3.33c1.08-1.86,2.49-3.02,4.19-3.5
		c1.7-0.46,3.43-0.25,5.22,0.64c0.22,2.11,0.54,4.29,0.98,6.58c0.44,2.26,0.98,4.42,1.62,6.46c0.64-0.62,1.6-1.09,2.86-1.45
		C495.02,540.19,497.01,540.2,499.71,540.59z"/>
	<path class="st0" d="M461.77,578.66c1.87-2.33,3.91-4.23,6.13-5.68c2.21-1.43,4.52-2.33,6.94-2.71c2.42-0.37,4.89-0.11,7.41,0.74
		c2.53,0.85,5.04,2.42,7.51,4.7c2.43,2.26,4.19,4.61,5.26,7.08c1.06,2.47,1.62,4.92,1.63,7.36c0.01,2.43-0.43,4.79-1.31,7.06
		c-0.9,2.27-2.08,4.35-3.58,6.21c-1.7,2.11-3.51,3.75-5.48,4.92c-1.98,1.18-3.97,1.91-6.02,2.21c-2.05,0.3-4.05,0.13-6.05-0.51
		c-1.99-0.64-3.86-1.73-5.54-3.3c-1.27-1.16-1.92-2.42-1.98-3.79c-0.06-1.37,0.35-2.81,1.25-4.33l9.71-16.59
		c-1.57-0.69-3.19-0.64-4.89,0.15c-1.7,0.78-3.22,2.05-4.63,3.79c-1.29,1.62-2.35,3.33-3.1,5.15c-0.78,1.8-1.27,3.39-1.48,4.79
		c-0.89,0.3-1.83,0.34-2.84,0.18c-1.02-0.18-1.89-0.6-2.63-1.29c-1.66-1.53-2.24-3.51-1.7-5.92c0.38-1.85,1.11-3.67,2.16-5.46
		C459.59,581.66,460.66,580.06,461.77,578.66z M484.89,597.11c0.76-0.95,1.27-1.91,1.54-2.88c0.26-0.97,0.33-1.87,0.22-2.74
		c-0.11-0.87-0.37-1.67-0.76-2.42c-0.4-0.75-0.89-1.42-1.43-1.99l-6.59,11.61c0.83,0.55,1.92,0.8,3.26,0.74
		C482.46,599.34,483.71,598.58,484.89,597.11z"/>
	<path class="st0" d="M460.87,636.64c-1.57,1.33-3.29,2.39-5.14,3.2c-1.86,0.8-3.68,1.21-5.49,1.21c-0.55,1.8-1.34,3.57-2.38,5.32
		c-1.03,1.75-2.57,3.48-4.59,5.2c-1.46,1.22-3.03,2.24-4.73,3.01c-1.7,0.77-3.41,1.18-5.16,1.21c-1.73,0.03-3.47-0.39-5.19-1.31
		s-3.35-2.4-4.89-4.5l-14.24-19.41c0.29-0.44,0.81-1.08,1.54-1.89c0.73-0.81,1.54-1.61,2.42-2.35c0.83-0.72,1.64-1.29,2.4-1.73
		c0.76-0.44,1.51-0.67,2.24-0.69c0.73-0.02,1.46,0.18,2.16,0.6c0.71,0.43,1.45,1.16,2.21,2.17l10.81,14.73
		c0.9,1.22,1.89,1.85,2.94,1.85c1.06,0,2.14-0.46,3.24-1.41c0.54-0.46,1.02-1.08,1.43-1.86c0.41-0.78,0.67-1.45,0.76-1.99
		c-0.15-0.13-0.29-0.28-0.4-0.41c-0.11-0.15-0.2-0.28-0.29-0.41l-15.07-20.52c0.33-0.47,0.87-1.13,1.6-1.95
		c0.73-0.81,1.52-1.59,2.36-2.3c0.83-0.72,1.64-1.29,2.4-1.73c0.76-0.44,1.51-0.67,2.24-0.69c0.73-0.02,1.46,0.18,2.18,0.6
		c0.71,0.43,1.45,1.16,2.21,2.17l10.81,14.73c0.9,1.22,1.92,1.83,3.03,1.78c1.11-0.05,2.18-0.49,3.16-1.33
		c0.68-0.59,1.2-1.2,1.52-1.85c0.33-0.65,0.59-1.22,0.79-1.71l-15.87-21.63c0.29-0.44,0.81-1.08,1.54-1.89
		c0.73-0.81,1.54-1.61,2.42-2.35c0.83-0.72,1.64-1.29,2.4-1.73c0.76-0.44,1.51-0.67,2.24-0.69c0.73-0.01,1.46,0.18,2.18,0.6
		c0.71,0.43,1.45,1.16,2.21,2.17l13.67,18.61c0.82,1.11,1.25,2.17,1.27,3.2c0.05,1.03-0.11,2.15-0.46,3.38
		c-0.57,2.09-1.6,4.25-3.08,6.5C464.76,632.84,462.98,634.85,460.87,636.64z"/>
	<path class="st0" d="M387.87,639.94c2.56-1.41,5.11-2.33,7.67-2.76c2.56-0.44,5-0.33,7.37,0.31c2.36,0.65,4.56,1.86,6.61,3.67
		c2.05,1.82,3.8,4.28,5.3,7.4c1.46,3.07,2.27,5.97,2.38,8.7c0.13,2.73-0.22,5.22-1.08,7.48c-0.83,2.26-2.07,4.25-3.7,6
		c-1.63,1.75-3.45,3.19-5.49,4.29c-2.3,1.25-4.56,2.05-6.81,2.33c-2.24,0.3-4.35,0.16-6.35-0.39c-1.99-0.55-3.79-1.52-5.42-2.93
		c-1.63-1.41-2.95-3.17-3.97-5.32c-0.76-1.59-0.92-3.02-0.5-4.32c0.43-1.29,1.33-2.45,2.68-3.5l14.83-11.42
		c-1.2-1.27-2.73-1.89-4.58-1.85c-1.84,0.05-3.71,0.59-5.61,1.63c-1.78,0.97-3.33,2.14-4.69,3.51c-1.35,1.36-2.36,2.63-3.05,3.84
		c-0.92-0.09-1.81-0.41-2.7-0.97s-1.54-1.33-1.98-2.26c-1-2.09-0.83-4.15,0.5-6.18c1-1.55,2.32-2.94,3.91-4.19
		C384.79,641.8,386.37,640.77,387.87,639.94z M402.78,666.37c1.03-0.57,1.86-1.25,2.43-2.05c0.57-0.79,0.98-1.61,1.17-2.45
		c0.19-0.85,0.24-1.7,0.13-2.55c-0.11-0.85-0.32-1.67-0.62-2.43l-10.17,8.08c0.57,0.87,1.49,1.52,2.77,2.01
		C399.75,667.44,401.19,667.25,402.78,666.37z"/>
	<path class="st0" d="M357.59,680.26c0.47,1.53,1.22,2.53,2.25,2.97c1.03,0.44,2.24,0.41,3.62-0.07c0.92-0.33,1.79-0.77,2.63-1.34
		c0.82-0.57,1.49-1.21,1.99-1.93l-7.86-25.88c0.43-0.31,1.1-0.72,2.05-1.21c0.94-0.49,1.97-0.93,3.03-1.31
		c1.02-0.35,1.97-0.6,2.81-0.74c0.85-0.13,1.63-0.09,2.33,0.18c0.68,0.25,1.31,0.71,1.84,1.37c0.54,0.67,0.99,1.62,1.37,2.86
		l6.81,22.38c0.41,1.34,0.47,2.53,0.2,3.57c-0.27,1.03-0.78,2.06-1.49,3.07c-1.22,1.75-2.89,3.39-5.05,4.98
		c-2.16,1.59-4.69,2.88-7.62,3.91c-5.24,1.83-9.64,2.01-13.21,0.54c-3.58-1.47-6.03-4.4-7.35-8.78l-7.1-23.35
		c0.41-0.31,1.1-0.72,2.05-1.21c0.94-0.49,1.97-0.93,3.03-1.31c1.02-0.35,1.97-0.6,2.81-0.74c0.85-0.13,1.63-0.09,2.32,0.18
		c0.68,0.26,1.31,0.72,1.84,1.37c0.54,0.67,0.99,1.62,1.37,2.86L357.59,680.26z"/>
	<path class="st0" d="M320.85,664.9c0.5-0.21,1.27-0.53,2.25-0.92c0.99-0.39,2.03-0.71,3.08-0.93c1.05-0.23,2.01-0.34,2.87-0.35
		c0.87-0.02,1.63,0.13,2.29,0.47c0.65,0.34,1.22,0.88,1.68,1.61c0.46,0.74,0.81,1.73,1.03,3.02l5.72,31.34
		c-0.5,0.21-1.27,0.53-2.25,0.92c-0.99,0.39-2.03,0.71-3.08,0.93c-1.05,0.23-2.01,0.34-2.87,0.35c-0.87,0.02-1.63-0.13-2.29-0.47
		c-0.65-0.34-1.22-0.88-1.68-1.61c-0.46-0.74-0.81-1.73-1.03-3.02L320.85,664.9z M342.32,709.95c0.35,1.95,0.05,3.73-0.92,5.32
		c-0.98,1.59-2.46,2.6-4.48,3.02c-2.01,0.43-3.75,0.1-5.21-0.97c-1.46-1.08-2.38-2.6-2.73-4.54c-0.35-1.95-0.05-3.73,0.92-5.32
		c0.98-1.59,2.46-2.6,4.48-3.02c2.01-0.43,3.75-0.1,5.21,0.97C341.05,706.49,341.97,708.01,342.32,709.95z"/>
	<path class="st0" d="M229.58,678.55l2.98-14.71c0.55-0.03,1.4,0,2.56,0.11c1.16,0.11,2.27,0.3,3.37,0.55
		c1.1,0.26,2.05,0.57,2.84,0.95c0.79,0.37,1.41,0.85,1.87,1.43c0.46,0.59,0.75,1.33,0.85,2.21c0.13,0.88,0.05,1.99-0.22,3.32
		l-7.34,36.11c-0.22,1.08-0.65,1.83-1.33,2.3c-0.67,0.46-1.51,0.75-2.54,0.9c-1.73,0.23-3.71,0.25-5.91,0.02
		c-2.19-0.21-4.51-0.62-6.94-1.18c-6.56-1.53-11.22-4.19-13.94-7.93c-2.73-3.75-3.58-8.14-2.56-13.21c0.64-3.17,1.95-5.71,3.93-7.58
		c1.98-1.89,4.14-3.2,6.48-3.94c-1.2-2.91-2.42-5.66-3.64-8.24s-2.11-4.89-2.71-6.9c0.83-1.68,1.98-2.85,3.43-3.5
		c1.46-0.65,2.97-0.78,4.54-0.43c1.05,0.25,1.94,0.59,2.63,1.01c0.71,0.43,1.31,0.95,1.78,1.53c0.47,0.59,0.89,1.27,1.24,2.06
		c0.33,0.77,0.65,1.61,0.92,2.47l3.89,11.75L229.58,678.55z M223.03,687.69c-1.81-0.43-3.33-0.26-4.58,0.49
		c-1.25,0.75-2.07,2.09-2.46,4.03c-0.4,1.95-0.11,3.55,0.85,4.82c0.96,1.27,2.71,2.21,5.24,2.79c0.71,0.16,1.29,0.28,1.73,0.33
		c0.44,0.05,0.92,0.09,1.48,0.1l2.33-11.49L223.03,687.69z"/>
	<path class="st0" d="M188.49,647.96c2.68,1.15,5,2.6,6.99,4.37c1.99,1.78,3.54,3.82,4.65,6.16c1.11,2.32,1.7,4.92,1.76,7.76
		c0.08,2.85-0.48,5.9-1.7,9.16c-1.19,3.2-2.7,5.76-4.52,7.65c-1.83,1.89-3.8,3.25-5.94,4.05c-2.13,0.8-4.35,1.13-6.65,0.97
		c-2.3-0.16-4.51-0.71-6.64-1.61c-2.4-1.01-4.45-2.33-6.12-3.95c-1.68-1.62-2.98-3.41-3.91-5.38c-0.92-1.98-1.43-4.07-1.52-6.31
		c-0.09-2.24,0.27-4.46,1.1-6.7c0.61-1.65,1.51-2.73,2.7-3.23c1.19-0.51,2.59-0.55,4.21-0.15l17.77,4.45
		c0.09-1.82-0.47-3.45-1.72-4.9c-1.25-1.45-2.86-2.61-4.86-3.47c-1.86-0.78-3.7-1.27-5.54-1.47s-3.41-0.16-4.7,0.07
		c-0.55-0.8-0.9-1.73-1.08-2.83c-0.17-1.09-0.08-2.12,0.27-3.09c0.81-2.19,2.36-3.41,4.65-3.67c1.75-0.21,3.59-0.09,5.51,0.41
		C185.16,646.71,186.91,647.3,188.49,647.96z M179.82,677.44c1.08,0.46,2.1,0.67,3.03,0.62c0.94-0.05,1.76-0.28,2.49-0.67
		c0.73-0.39,1.35-0.92,1.87-1.57c0.54-0.65,0.96-1.36,1.29-2.11l-12.38-2.91c-0.22,1.03-0.08,2.23,0.41,3.55
		C177.06,675.7,178.14,676.72,179.82,677.44z"/>
	<path class="st0" d="M139.79,635.09c1.84-3.45,4.51-5.4,7.95-5.85c3.45-0.46,7.51,0.75,12.21,3.66c1.76,1.09,3.35,2.26,4.72,3.47
		c1.37,1.21,2.45,2.43,3.21,3.66c0.76,1.22,1.24,2.47,1.38,3.71c0.15,1.24-0.09,2.45-0.73,3.63c-0.57,1.09-1.29,1.87-2.11,2.35
		c-0.82,0.49-1.66,0.8-2.53,0.93c-0.83-1.49-1.89-2.99-3.16-4.54s-2.95-2.95-5.02-4.23c-1.31-0.81-2.42-1.22-3.33-1.24
		s-1.55,0.31-1.92,0.97c-0.33,0.64-0.35,1.29-0.05,1.96c0.32,0.67,1,1.49,2.05,2.45l1.68,1.59c3.26,3.04,5.35,5.96,6.24,8.71
		c0.92,2.76,0.54,5.69-1.13,8.78c-0.9,1.68-2.05,2.99-3.45,3.92c-1.4,0.95-2.97,1.49-4.67,1.63c-1.7,0.15-3.54-0.07-5.53-0.62
		c-1.98-0.55-4-1.49-6.07-2.76c-1.55-0.97-2.95-1.99-4.21-3.09c-1.24-1.09-2.22-2.21-2.97-3.33c-0.75-1.13-1.2-2.27-1.37-3.43
		c-0.17-1.16,0.05-2.29,0.62-3.37c0.57-1.05,1.22-1.83,1.98-2.35c0.76-0.53,1.55-0.87,2.36-1.03c0.22,0.44,0.59,0.97,1.14,1.65
		c0.55,0.67,1.16,1.36,1.86,2.05c0.7,0.71,1.41,1.37,2.16,2.01c0.75,0.65,1.46,1.18,2.13,1.61c1.38,0.87,2.56,1.36,3.5,1.49
		c0.94,0.13,1.62-0.16,1.99-0.9c0.27-0.49,0.27-1.03,0.03-1.62c-0.24-0.57-0.9-1.37-1.94-2.37l-1.7-1.68
		c-3.51-3.5-5.67-6.65-6.44-9.47C137.94,640.63,138.31,637.84,139.79,635.09z"/>
	<path class="st0" d="M124.96,625.21c0.76-1.08,0.99-2.12,0.67-3.09c-0.32-0.97-1.06-1.95-2.22-2.89c-0.57-0.47-1.22-0.92-1.92-1.31
		c-0.7-0.41-1.34-0.71-1.92-0.92c-0.03-0.75,0.03-1.5,0.18-2.27c0.13-0.77,0.5-1.55,1.05-2.33c1.11-1.59,2.57-2.43,4.4-2.53
		c1.81-0.1,4.13,0.97,6.91,3.25c3.43,2.77,5.46,5.76,6.13,8.91c0.67,3.17-0.32,6.64-2.95,10.38l-18.84,26.79
		c-0.52-0.23-1.22-0.59-2.11-1.08c-0.9-0.51-1.79-1.11-2.7-1.83c-1.7-1.39-2.81-2.79-3.32-4.22c-0.5-1.42-0.02-3.17,1.46-5.27
		l2.81-4.01l-7.64-6.2c0.09-0.65,0.27-1.41,0.54-2.27c0.27-0.87,0.7-1.71,1.29-2.55c1.03-1.45,2.07-2.27,3.12-2.43
		c1.06-0.16,2.08,0.18,3.1,0.99l5.31,4.3L124.96,625.21z"/>
	<path class="st0" d="M96.27,632.32c-0.44-0.26-1.1-0.74-1.94-1.41c-0.83-0.67-1.66-1.43-2.46-2.29c-0.76-0.81-1.38-1.61-1.89-2.35
		c-0.5-0.75-0.81-1.52-0.92-2.3c-0.11-0.77,0-1.57,0.3-2.39c0.3-0.81,0.9-1.68,1.75-2.61l11.08-11.96c1.41-1.52,2.07-2.97,1.98-4.37
		s-0.79-2.77-2.1-4.19c-0.79-0.85-1.51-1.47-2.14-1.85c-0.64-0.39-1.16-0.65-1.59-0.8L80.3,615.27c-0.44-0.26-1.1-0.72-1.95-1.41
		c-0.85-0.69-1.66-1.43-2.46-2.29c-0.76-0.81-1.38-1.61-1.89-2.35c-0.5-0.75-0.81-1.52-0.92-2.3c-0.11-0.77,0-1.57,0.3-2.39
		c0.3-0.81,0.9-1.68,1.75-2.61l15.66-16.9c1.72-1.85,3.73-2.47,6.05-1.85c1.97,0.47,3.99,1.39,6.05,2.76
		c2.07,1.36,4.1,3.09,6.05,5.2c1.87,1.99,3.38,4.05,4.54,6.18c1.16,2.12,1.87,4.25,2.16,6.41c0.29,2.14,0.06,4.28-0.68,6.41
		c-0.73,2.12-2.07,4.23-3.99,6.31L96.27,632.32z"/>
	<path class="st0" d="M85.63,564.31c0.41,0.33,0.99,0.88,1.75,1.68c0.75,0.8,1.46,1.68,2.14,2.63c0.65,0.92,1.17,1.78,1.57,2.61
		c0.4,0.81,0.61,1.63,0.61,2.42s-0.2,1.55-0.61,2.32c-0.41,0.77-1.1,1.53-2.07,2.33l-17.44,14.25c-0.9,0.74-1.78,1.18-2.68,1.34
		c-0.89,0.16-1.83,0.13-2.8-0.13c-0.98-0.26-2.01-0.71-3.12-1.36c-1.1-0.64-2.21-1.41-3.3-2.27c-1.11-0.87-2.18-1.83-3.19-2.91
		c-1.03-1.06-1.98-2.21-2.84-3.39c-1.41-1.99-2.18-3.87-2.29-5.62c-0.11-1.75,0.65-3.29,2.29-4.63c0.55-0.44,1.14-0.8,1.78-1.06
		c0.64-0.26,1.27-0.44,1.87-0.55c0.62,0.88,1.29,1.73,2.03,2.58c0.73,0.85,1.48,1.65,2.25,2.4c0.77,0.75,1.52,1.43,2.24,2.06
		c0.72,0.63,1.38,1.11,2.01,1.47L85.63,564.31z"/>
	<path class="st0" d="M37.56,557.21c-1.29-2.45-2.25-4.84-2.86-7.14c-0.61-2.3-0.81-4.46-0.62-6.49c0.2-2.01,0.82-3.85,1.87-5.53
		c1.05-1.67,2.57-3.11,4.56-4.32l14.21-8.7c1.1-0.67,2.18-0.9,3.22-0.65c1.04,0.25,2.07,0.65,3.06,1.24
		c3.21,1.95,6.24,5.6,9.08,10.97c1.27,2.4,2.22,4.7,2.81,6.9c0.61,2.19,0.85,4.23,0.73,6.15c-0.11,1.91-0.62,3.63-1.54,5.18
		c-0.92,1.55-2.24,2.86-3.97,3.92c-2.92,1.78-5.67,2.23-8.21,1.33s-5.05-3.2-7.51-6.88l-5.63-8.38l-0.44,0.28
		c-1.24,0.75-1.79,1.86-1.72,3.35c0.09,1.49,0.7,3.32,1.86,5.5c0.92,1.73,1.98,3.3,3.19,4.74c1.2,1.42,2.42,2.65,3.62,3.66
		c-0.06,0.81-0.38,1.68-0.94,2.57c-0.57,0.88-1.27,1.59-2.11,2.11c-1.1,0.67-2.13,0.93-3.08,0.75c-0.96-0.16-1.98-0.71-3.08-1.61
		c-1.16-1.03-2.33-2.39-3.49-4.05C39.4,560.42,38.39,558.8,37.56,557.21z M62.21,541.4c-0.41-0.77-0.92-1.59-1.59-2.42
		c-0.64-0.83-1.22-1.41-1.7-1.71l-5.08,3.11l2.98,4.68c0.76,1.22,1.57,2.11,2.42,2.67c0.85,0.55,1.7,0.57,2.56,0.07
		c0.85-0.53,1.35-1.29,1.51-2.32C63.48,544.44,63.1,543.08,62.21,541.4z"/>
	<path class="st0" d="M29.64,502.89c-1.41,0.57-2.3,1.42-2.67,2.55c-0.37,1.13-0.29,2.42,0.22,3.89c0.35,0.97,0.79,1.89,1.35,2.76
		c0.57,0.87,1.19,1.53,1.89,2.05l23.73-9.6c0.3,0.44,0.71,1.15,1.22,2.14s0.96,2.06,1.35,3.19c0.38,1.08,0.65,2.07,0.81,2.99
		c0.16,0.91,0.13,1.75-0.06,2.51c-0.2,0.75-0.61,1.43-1.2,2.05s-1.46,1.15-2.6,1.61l-20.52,8.3c-1.24,0.49-2.33,0.62-3.3,0.37
		c-0.98-0.25-1.95-0.74-2.94-1.45c-1.68-1.22-3.3-2.95-4.87-5.2c-1.57-2.24-2.89-4.9-3.97-7.99c-1.94-5.53-2.3-10.25-1.1-14.14
		c1.2-3.89,3.82-6.65,7.83-8.29l21.4-8.66c0.3,0.44,0.71,1.15,1.22,2.14c0.5,0.99,0.96,2.06,1.35,3.19
		c0.38,1.08,0.65,2.07,0.81,2.99c0.17,0.92,0.13,1.75-0.06,2.51s-0.61,1.43-1.2,2.05c-0.59,0.6-1.46,1.13-2.6,1.61L29.64,502.89z"/>
	<path class="st0" d="M30.68,466.43c1.24-0.3,2.03-0.93,2.38-1.89c0.35-0.97,0.35-2.23,0.03-3.75c-0.17-0.77-0.38-1.53-0.68-2.32
		c-0.29-0.78-0.59-1.47-0.92-2.03c0.43-0.59,0.92-1.13,1.49-1.62c0.57-0.49,1.31-0.83,2.21-1.06c1.81-0.44,3.43-0.07,4.87,1.11
		c1.45,1.18,2.56,3.59,3.33,7.28c0.94,4.5,0.73,8.17-0.67,11.06c-1.38,2.89-4.21,4.86-8.49,5.88l-30.49,7.39
		c-0.26-0.53-0.57-1.29-0.98-2.3c-0.38-0.99-0.7-2.09-0.94-3.27c-0.47-2.24-0.47-4.08,0-5.51s1.9-2.43,4.28-3.01l4.56-1.11
		l-2.11-10.02c0.46-0.44,1.05-0.88,1.78-1.36c0.73-0.47,1.57-0.81,2.51-1.05c1.66-0.41,2.95-0.3,3.86,0.31
		c0.9,0.6,1.49,1.59,1.78,2.91l1.46,6.96L30.68,466.43z"/>
</g>
</svg>
